<?xml version="1.0" encoding="utf-8"?>
<!-- Generator: Adobe Illustrator 22.1.0, SVG Export Plug-In . SVG Version: 6.00 Build 0)  -->
<svg version="1.1" id="Layer_1" xmlns="http://www.w3.org/2000/svg" xmlns:xlink="http://www.w3.org/1999/xlink" x="0px" y="0px"
	 viewBox="0 0 252 33" style="enable-background:new 0 0 252 33;" xml:space="preserve">
<g transform="translate(0 618) scale(0.1 -0.1)">
	<path style="fill:#FFFFFF;" d="M234.2,6169.5c-2.4-4.1-8.5-14.7-13.6-23.5c-11.4-19.5-48.5-83.6-67.8-117.1
		c-7.9-13.5-19.4-33.5-25.7-44.3c-10.6-18.3-23.1-39.8-30.2-52.1l-3-5.2l19.5-0.2c15.1-0.1,19.6,0.1,20.1,0.5
		c0.3,0.4,10.6,18,22.8,39.2c12.3,21.2,34.3,59.1,48.9,84.3c14.6,25.2,28,48.4,29.8,51.4c1.7,3.1,3.4,5.6,3.7,5.5
		c0.3-0.1,5.6-8.9,11.7-19.5c6.2-10.6,16.1-27.7,22-37.9c5.9-10.2,14.9-25.8,20-34.6s17.1-29.5,26.7-46.1
		c9.6-16.6,19.1-33,21.2-36.5l3.7-6.4h19.9h19.8l-0.7,1.2c-0.4,0.7-9.8,16.9-21,36c-11.1,19.2-24.9,43-30.6,52.9
		s-28.6,49.3-50.7,87.5c-22.1,38.2-40.6,70.1-41.1,70.9l-0.9,1.5L234.2,6169.5z"/>
	<path style="fill:#FFFFFF;" d="M1049.4,6073.9V5971h10.2h10.2v102.9v102.9h-10.2h-10.2V6073.9z"/>
	<path style="fill:#FFFFFF;" d="M1092.9,6159.3v-17.6l10.1,0.1l10.1,0.2l0.2,17.4l0.1,17.4h-10.2h-10.2V6159.3z"/>
	<path style="fill:#FFFFFF;" d="M2313.6,6073.9V5971h10.2h10.2v102.9v102.9h-10.2h-10.2V6073.9z"/>
	<path style="fill:#FFFFFF;" d="M2496.8,6176.5c-0.2-0.2-0.4-17.4-0.4-38.3v-38l-2.1,2.4c-2.9,3.4-10,9.2-14.9,12.4
		c-7.8,5.1-17.4,8.9-27.5,10.8c-7.5,1.4-22,1.3-29.2-0.2c-15.1-3.2-27.3-10.1-38.7-21.4c-9.5-9.5-16.1-19.9-20-31.4
		c-4.8-14-5.6-30.6-2.1-45.6c3.1-13.7,9.8-25.7,20.3-36.6c11.7-12.2,24.5-19.3,40.4-22.5c7.9-1.6,23.4-1.7,30.3-0.3
		c16,3.5,29.1,10.6,40.9,22.4c9.2,9.1,15.4,18.9,19.1,29.9c4,11.9,3.7,5.2,3.8,85l0.2,71.6h-9.9
		C2501.6,6176.9,2496.9,6176.7,2496.8,6176.5z M2447.5,6106.1c11.4-1.6,22.2-7.1,30.8-15.9c7.4-7.4,13.3-17.6,15.9-27.2
		c1.3-4.9,1.4-6,1.4-16c0.1-10.2,0-11-1.4-16c-3.7-13.3-13.6-27.1-24.9-34.8c-8.8-6-16.6-8.4-28.1-8.8c-17.9-0.6-30.4,4.2-42.8,16.6
		c-12.5,12.5-18,25.9-17.9,43.5c0.1,16.3,5,29,15.6,40.2c9.9,10.5,21,16.6,33.6,18.4C2434.2,6106.8,2442.8,6106.8,2447.5,6106.1z"/>
	<path style="fill:#FFFFFF;" d="M1.2,6130.7c1.5-2.6,60-103.5,79.1-136.5c7.2-12.5,13.3-22.7,13.5-22.7s10.6,17.7,23.1,39.4
		c12.5,21.6,33.5,57.9,46.7,80.5l23.8,41.2l-12.6,0.2c-10.2,0.1-12.7,0-13.2-0.6c-0.3-0.4-15.6-26.8-34.1-58.7
		c-18.4-31.9-33.6-57.9-33.8-58c-0.2,0-15.6,26.4-34.3,58.7l-34,58.7H12.7H-0.1L1.2,6130.7z"/>
	<path style="fill:#FFFFFF;" d="M286.7,6130.7c1.5-2.6,60-103.5,79.1-136.5c7.2-12.5,13.3-22.7,13.5-22.7c0.2,0,10.6,17.7,23.1,39.4
		c12.5,21.6,33.5,57.9,46.7,80.5l23.8,41.2l-12.6,0.2c-10.2,0.1-12.7,0-13.2-0.6c-0.3-0.4-15.6-26.8-34.1-58.7
		c-18.4-31.9-33.6-57.9-33.8-58c-0.2,0-15.6,26.4-34.3,58.7l-34,58.7h-12.8h-12.8L286.7,6130.7z"/>
	<path style="fill:#FFFFFF;" d="M1710,6128.2c-5.8-0.6-12.3-2-17.3-3.8c-22.3-7.9-42.7-28.6-50-50.9c-3-9.1-3.7-13.8-3.7-25.5
		c0-11.6,0.8-16.9,3.7-25.7c7.5-22.4,27.7-42.8,50.1-50.8c8.5-3,14.2-3.9,24.7-3.9c11,0,16.2,0.8,25.5,3.9
		c17.2,5.7,31.5,16.6,41.2,31.3c2.7,4.1,7.2,13,8.4,16.8l0.6,1.7h-10.9h-11l-1.4-2.7c-2.4-4.7-6.5-10.5-10.4-14.5
		c-9.1-9.4-20.3-14.5-34.8-15.8c-17.1-1.5-32.3,3.3-45.3,14.4c-10.2,8.7-17.7,22.6-19.4,35.8l-0.3,2.2h68.6h68.6v8.1
		c0,12.4-1.5,20.9-5.5,30.2c-7.9,18.8-26.1,36.6-45.1,43.9C1735,6127.4,1721.1,6129.4,1710,6128.2z M1729.9,6106.4
		c17.6-3.1,33-14.6,41.2-30.8c1.9-3.7,5.4-13.7,5.4-15.2c0-0.8-4.9-0.8-58.4-0.8h-58.4l1,3.8c3,10.8,7.3,18.7,14.3,25.9
		C1689.5,6104.2,1708.5,6110.1,1729.9,6106.4z"/>
	<path style="fill:#FFFFFF;" d="M1541.9,6127.8c-3.5-0.4-13.8-2.9-17.6-4.2c-15.8-5.7-31.6-17.9-41.5-32.2
		c-15-21.7-17.3-52-5.8-76.9c4.8-10.5,14.8-22.4,25.6-30.5c6.1-4.6,16.5-10.1,23.3-12.2c9.7-3.1,13.7-3.7,27.3-3.6
		c11.1,0,13.3,0.2,18.1,1.2c21.4,4.6,37.4,15.4,49.5,33.3c3.5,5.2,7.7,13,7.2,13.5c-0.2,0.2-5.3,0.4-11.5,0.4h-11.1l-3.1-4.3
		c-9.1-12.5-22.2-20.6-37.8-23.5c-2.5-0.5-7.5-0.7-13.6-0.7c-8.7,0.1-10.2,0.2-14.9,1.4c-6.3,1.7-15.4,6.1-20.3,9.8
		c-17.6,13.4-26.8,33.8-24.6,54.4c1.6,14.5,7.6,26.2,19,36.8c14,13.1,29.3,18.7,47.4,17.1c19.1-1.6,33.6-9.8,44.3-25l3.4-4.8h11.4
		c6.3,0,11.4,0.1,11.4,0.3c0,1.2-5.2,11.6-7.6,15.3c-4.2,6.4-13.6,15.7-20.6,20.4c-15,10-29.8,14.5-47.3,14.3
		C1547.5,6128.1,1542.9,6127.9,1541.9,6127.8z"/>
	<path style="fill:#FFFFFF;" d="M581.8,6126.8c-14.5-2.4-27.6-9.1-38.8-19.8c-14.5-13.7-22.6-29.1-25.4-48
		c-0.9-6.5-0.7-18.8,0.5-25.7c2.9-16.7,10-29.9,22.8-42.7c12.5-12.5,24.8-19,41.1-21.8c7.5-1.3,19.8-1.4,26.9-0.2
		c9.8,1.6,20.2,5.8,28.8,11.5c3.9,2.6,11.3,8.9,14.2,12.2l2,2.2l0.1-11.7l0.2-11.6h10h10v44c0,40.3-0.1,44.4-0.9,48.7
		c-3.4,16.7-10.2,29-22.9,41.4c-12,11.7-25.1,18.4-41.1,21.2C601.8,6127.9,588.5,6128,581.8,6126.8z M604.9,6107.2
		c11.3-1.6,22.2-7.2,30.8-15.8c7.3-7.4,13.3-17.7,15.9-27.3c1.3-4.9,1.4-6,1.4-15.7c0-9.7-0.1-10.9-1.4-15.7
		c-4.3-16.4-16.8-31.7-31.5-39.1c-7.9-3.9-14.3-5.3-24.1-5.3c-11.3,0.1-20.1,2.4-28.8,7.7c-14.8,9-24.7,22.8-28.3,39.9
		c-1.3,6.2-1.2,18.8,0.2,25.4c2.3,10.8,7,19.7,14.7,27.8c7.6,8,15.1,13,23.8,15.9C585.3,6107.5,596.2,6108.4,604.9,6107.2z"/>
	<path style="fill:#FFFFFF;" d="M764.4,6127.1c-12.6-1.8-24-6.2-34.3-13.5c-5.8-4.1-16.1-14.5-20.2-20.5
		c-6.1-8.6-10.2-17.9-12.9-29.4c-0.9-3.7-0.9-8.8-1.1-75l-0.2-71.1h10h10v38.3v38.2l3.3-3.3c11.5-11.7,24.1-18.5,40.2-22
		c4.6-0.9,7.2-1.2,15.5-1.2c11.2-0.1,14.8,0.5,24.4,3.7c11.1,3.7,20.3,9.6,29.6,18.8c14.6,14.6,22.1,30.8,23.9,51.3
		c2.1,24.4-6.6,46.9-25,64.8c-11.3,10.9-24,17.5-38.8,20.2C783.1,6127.3,769.2,6127.8,764.4,6127.1z M788,6105.7
		c5.4-1.4,14.8-5.9,19.4-9.4c10.9-8.3,19.5-20.8,22.9-33.5c1.3-4.7,1.4-5.8,1.4-15.5s-0.1-10.8-1.4-15.7
		c-4.4-16.3-17-31.3-32.6-38.6c-12.3-5.8-28.8-6.8-41.7-2.5c-9,2.9-15.2,7-22.4,14.4c-11,11.4-16.5,23.9-17.2,39.3
		c-0.8,18.2,5.1,33.6,17.6,46.4c8.7,8.7,18,13.9,29,16C768.6,6107.5,782.2,6107.1,788,6105.7z"/>
	<path style="fill:#FFFFFF;" d="M941.5,6127.1c-12.6-1.8-24-6.2-34.3-13.5c-5.8-4.1-16.1-14.5-20.2-20.5
		c-6.1-8.6-10.2-17.9-12.9-29.4c-0.9-3.7-0.9-8.8-1.1-75l-0.2-71.1h10h10v38.3v38.2l3.3-3.3c11.5-11.7,24.1-18.5,40.2-22
		c4.6-0.9,7.2-1.2,15.5-1.2c11.2-0.1,14.8,0.5,24.4,3.7c11.1,3.7,20.3,9.6,29.6,18.8c14.6,14.6,22.1,30.8,23.9,51.4
		c1.7,19.1-3.8,38.6-15.2,53.6c-7.9,10.6-19.3,20.2-29.5,25.1c-5.4,2.6-13.2,5-19.1,6.1C960.2,6127.3,946.2,6127.8,941.5,6127.1z
		 M965,6105.7c5.4-1.4,14.8-5.9,19.4-9.4c10.9-8.3,19.5-20.8,22.9-33.5c1.3-4.7,1.4-5.8,1.4-15.5s-0.1-10.8-1.4-15.7
		c-4.4-16.3-17-31.3-32.6-38.6c-12.3-5.8-28.8-6.8-41.7-2.5c-8.4,2.8-14.7,6.6-21.2,13.1c-9.1,9-14.8,19.1-17.2,30.5
		c-1.2,5.1-1.5,15.8-0.8,21.4c1.8,13.3,7.6,25.2,17.3,34.9c8.7,8.7,18,13.9,29,16C945.7,6107.5,959.3,6107.1,965,6105.7z"/>
	<path style="fill:#FFFFFF;" d="M1200,6126.9c-16.1-2.8-30.5-10.7-42.2-23.2c-11.2-11.9-17.6-23.8-21.1-39.3
		c-0.9-4.3-1.1-6.7-1.1-16.6c0-10,0.2-12.3,1.2-16.9c2.3-10.6,6.9-21,13-29.7c4.2-6,14.6-16.2,20.3-20.1c8.7-5.9,18.1-9.9,28.6-12.1
		c6.3-1.3,24.6-1.4,30.8,0c14.5,3.1,26.6,9.7,37.9,20.6l4.7,4.5l0.1-11.4l0.2-11.5l10.1-0.2l10.1-0.1l-0.2,44.9
		c-0.2,44.1-0.2,45.1-1.3,50c-3.1,13.5-8.7,24.5-18,34.8c-11.9,13.3-24.9,21.1-41.8,25.1c-4.7,1.1-7,1.3-16.2,1.5
		C1207.2,6127.5,1203,6127.4,1200,6126.9z M1228.6,6106.2c6.2-1.5,15-6,20.3-10.2c11.8-9.5,20.1-23.7,22.1-37.9
		c1-6.5,0.4-19.5-1-25.2c-2.6-10-7.9-19.3-15.4-27.1c-5.7-5.9-9.9-9-16.8-12.4c-11.2-5.4-22.9-6.8-36-3.9c-10,2.1-18.4,6.7-26.1,14
		c-6.1,5.8-9.6,10.3-12.8,16.5c-4.8,9.3-6.5,16.7-6.5,28.5c0,17.2,5.3,30.2,17.2,42.1c9.4,9.5,19.5,14.7,32.4,16.7
		C1210.9,6108,1223.5,6107.4,1228.6,6106.2z"/>
	<path style="fill:#FFFFFF;" d="M1372.1,6127.1c-15.8-1.8-29.3-8.6-40.4-20.3c-7.4-7.8-12.2-15.8-15.3-25.7
		c-3.2-10-3.1-8.5-3.3-61.4l-0.2-48.6h10.5h10.5l0.2,48.9l0.2,48.8l1.5,4.7c5.2,16.7,19.1,29.6,35.7,33.1c5,1,14.7,1,19.7-0.1
		c15.9-3.6,30.2-17.3,35.2-33.8l1.2-3.9l0.2-48.8l0.2-48.9h10.5h10.5l-0.2,48.9c-0.2,48.1-0.2,48.9-1.3,53.9
		c-3.3,14.6-8.6,24.3-18.7,34.3c-3.4,3.4-7.7,7-10.4,8.9C1405.2,6125.3,1388.9,6129,1372.1,6127.1z"/>
	<path style="fill:#FFFFFF;" d="M2124.7,6126.8c-10.6-1.8-22.4-7-31.1-13.6c-2.8-2.1-7.7-6.6-10.9-9.9
		c-11.3-11.7-17.8-23.9-21.2-39.6c-1-4.7-1.2-7-1.2-16.5c0-9.5,0.2-11.7,1.2-16.5c3.2-15.1,10-27.9,20.5-39
		c15.2-16,33.8-23.9,56.3-23.9c11.5-0.1,20.4,1.6,29.5,5.5c16.8,7.1,32.8,22.3,41.4,39.6c2.3,4.7,5.6,14.6,6.7,20.5
		c1.3,7.1,1.3,21.5-0.1,28.6c-3.2,17.4-11.1,31.7-24.6,44.6c-11.8,11.3-24.6,17.7-40.9,20.3
		C2144.5,6127.9,2130.4,6127.8,2124.7,6126.8z M2150.9,6106.4c16.5-3.1,31.7-15.7,39.9-32.9c6.5-13.7,7.5-30.1,2.7-44.8
		c-4.8-15-19.1-30.8-33-36.6c-7.3-3-12.3-4-21.4-3.9c-12,0-20.7,2.3-29.1,7.5c-15.1,9.3-25.1,23.8-28.3,41.1c-1.3,7-0.8,20.2,1,27
		c5.3,20.2,22.2,37.1,42.3,42.2C2132.2,6107.7,2142.6,6107.9,2150.9,6106.4z"/>
	<path style="fill:#FFFFFF;" d="M2288.6,6126.3c-12.7-2.3-24.4-9.7-31.1-19.7l-2.1-3.2v10.3v10.3h-9.7h-9.7v-76.5V5971h10.7h10.7
		l0.2,50.7c0.2,55.9,0.1,54,3.6,61.4c2.2,4.7,5.2,8.4,10.7,13.2c7,6.1,14.8,9.5,23.3,10l2.4,0.2l0.2,10.4l0.1,10.3l-2.7-0.1
		C2293.6,6127.1,2290.7,6126.7,2288.6,6126.3z"/>
	<path style="fill:#FFFFFF;" d="M1092.9,6047.5V5971l10.1,0.1l10.1,0.2l0.2,76.4l0.1,76.3h-10.2h-10.2V6047.5z"/>
	<path style="fill:#FFFFFF;" d="M1815.4,6123.1c0.2-0.7,55.5-146.6,57.3-151.1c0.4-0.8,1.4-0.9,12-0.9h11.6l15.4,49.7
		c8.4,27.3,15.6,49.9,15.8,50.3c0.2,0.5,0.8-0.9,1.7-3.7c0.7-2.4,8.2-25,16.5-50.2l15.1-45.8h12h12l27.9,74.1
		c15.4,40.8,28.2,75.1,28.7,76.4l0.8,2.2H2031l-11.1-0.1l-23.8-62.6c-13.1-34.5-23.9-62.7-24.1-62.8c-0.2-0.1-7.9,23.6-17.2,52.5
		c-9.4,29-17.2,53.2-17.4,53.7c-0.4,0.8-1.4,0.9-9.1,0.9h-8.5l-2.7-8c-1.5-4.4-9.4-28.8-17.6-54.1c-8.2-25.3-15-46.1-15.1-46.2
		c-0.1-0.1-10.7,28.3-23.7,63.1l-23.5,63.2l-10.9,0.2C1815.9,6124,1815.2,6123.9,1815.4,6123.1z"/>
	<path style="fill:#FFFFFF;" d="M1519.9,5894.7v-41.1l2.3,0.2l2.2,0.2v4.6c0,2.5-0.1,21-0.2,41l-0.1,36.4h-2.1h-2.1V5894.7z"/>
	<path style="fill:#FFFFFF;" d="M1985.1,5894.7v-41.1l2.3,0.2l2.2,0.2l0.2,41l0.1,41h-2.4h-2.4V5894.7z"/>
	<path style="fill:#FFFFFF;" d="M1279.9,5903.7V5872h3.4h3.4v4.4v4.3l3.6,4.5c1.9,2.5,3.7,4.5,3.8,4.6c0.2,0,3.6-4,7.6-8.9l7.3-8.9
		l4.1-0.1c3.1,0,4,0.2,3.7,0.6c-0.3,0.4-4.5,5.6-9.5,11.6l-9.1,10.8l8.9,11.8l8.9,11.8h-4h-4l-10.4-13.6l-10.5-13.6l-0.3,21.8
		l-0.3,21.8l-3.2,0.2l-3.3,0.2V5903.7z"/>
	<path style="fill:#FFFFFF;" d="M1330.2,5929.9v-5.5h3.1h3.1v5.5v5.5h-3.1h-3.1V5929.9z"/>
	<path style="fill:#FFFFFF;" d="M1774,5903.7V5872h3.1h3.1v31.7v31.7h-3.1h-3.1V5903.7z"/>
	<path style="fill:#FFFFFF;" d="M1795.4,5929.9v-5.5h3.1h3.1v5.5v5.5h-3.1h-3.1V5929.9z"/>
	<path style="fill:#FFFFFF;" d="M2114,5903.7V5872h3.1h3.1v31.7v31.7h-3.1h-3.1V5903.7z"/>
	<path style="fill:#FFFFFF;" d="M2316.7,5929.9v-5.5h3.1h3.1v5.5v5.5h-3.1h-3.1V5929.9z"/>
	<path style="fill:#FFFFFF;" d="M1115.1,5919.6c-8.4-1.7-16.2-8.1-19.1-15.7c-2.3-5.9-1.9-13.5,0.9-19.4c2.1-4.3,7-9.1,11.7-11.3
		c7-3.3,15.6-3.4,22.4-0.3c3.9,1.8,8.8,6.3,10.8,10l1.4,2.6h-3.6h-3.6l-2.2-2.6c-1.4-1.6-3.4-3.1-5.2-4.1c-2.8-1.4-3.5-1.5-8.8-1.5
		c-5.1,0-6.1,0.2-8.4,1.3c-3.2,1.6-7.1,5.4-8.7,8.7c-0.9,1.9-1.3,3.6-1.4,7.1c-0.2,4-0.1,4.9,1.2,7.7c1.8,3.9,5.9,8,10.1,9.8
		c2.5,1.2,3.8,1.4,7.2,1.4c5.8,0,9.7-1.7,13.6-6l2.9-3.1l3.4,0.2l3.4,0.2l-1.4,2.8C1137.5,5916.1,1125.3,5921.7,1115.1,5919.6z"/>
	<path style="fill:#FFFFFF;" d="M1174.6,5919.6c-7.2-1.2-14.3-6.8-17.7-13.9c-1.8-3.7-2-4.7-2.1-9.2c-0.3-7.6,1.3-12.5,5.9-17.7
		c5.1-5.7,10.6-8.1,18.1-8.1c7.3,0.1,12.4,2.4,17.7,8.2c6.9,7.5,8.2,18,3.7,27.5c-1.4,2.9-6,8-9.2,10
		C1186.6,5919.2,1179.9,5920.5,1174.6,5919.6z M1184.8,5912.5c3-1,7.5-5,9.3-8.4c2.9-5.3,2.9-12.4,0-17.6c-1.9-3.5-6.3-7.4-9.6-8.5
		c-3.7-1.3-10.3-0.9-13.5,0.7c-3.2,1.7-6.5,5.1-8.3,8.7c-1.4,2.7-1.5,3.6-1.5,7.8c0.1,5,0.7,7.2,3.2,10.9c1.6,2.4,5.6,5.3,8.4,6.4
		C1175.6,5913.6,1181.7,5913.6,1184.8,5912.5z"/>
	<path style="fill:#FFFFFF;" d="M1237.5,5919.6c-5.7-1-9.7-3.4-13.9-8c-13.3-14.7-4.9-38,14.7-40.8c14.1-2,27.2,9.8,27.1,24.4
		c-0.1,9.4-5.3,18-13.5,22.2C1247.8,5919.4,1241.7,5920.4,1237.5,5919.6z M1248.9,5911.8c3.6-1.8,6.2-4.5,8.3-8.5
		c1.3-2.5,1.5-3.3,1.5-8c0-4.7-0.2-5.5-1.4-7.9c-2.2-4.2-4.9-6.9-8.5-8.7c-3.2-1.6-3.7-1.6-8-1.4c-3.8,0.2-5.1,0.5-7.4,1.7
		c-3.2,1.8-6.3,5-8,8.5c-1,2.1-1.2,3.3-1.2,7.7c0,6,0.9,8.6,4.2,12.3c3.7,4.1,7.5,5.8,13.4,5.8
		C1245.1,5913.4,1246.1,5913.2,1248.9,5911.8z"/>
	<path style="fill:#FFFFFF;" d="M1424.5,5919.2c-4-1.3-5.7-2.3-8.7-5c-6.2-5.7-9.2-13.7-8-22.1c1.4-10.3,9.8-19.1,20-20.9
		c6.6-1.1,14.6,1.2,19.4,5.7c1.1,1,2.1,1.8,2.3,1.8c0.2,0,0.2-1.7-0.1-3.8c-0.6-6.7-4.1-11.7-10.2-14.6c-3.7-1.8-9.8-1.7-13.8,0.2
		c-3.7,1.7-7.4,5-8.8,8.1c-1.2,2.3-1.2,2.3-4,2.3c-2.4,0-2.8-0.2-2.8-0.9c0-1.8,2.8-6.5,5.6-9.3c9.2-9.1,25.1-9.2,34.5-0.1
		c3.2,3.1,4.7,5.7,5.5,9.7c0.7,3.5,0.8,26.2,0.1,30c-1.6,8.5-8.5,16.3-16.6,18.9C1434.5,5920.4,1428.5,5920.5,1424.5,5919.2z
		 M1437.9,5912.8c3.6-1.3,7.4-5,9.5-8.9c1.4-2.6,1.5-3.4,1.5-8.1c0-4.7-0.2-5.6-1.5-8.2c-3.8-7.8-11.7-11.7-19.6-9.6
		c-5.5,1.4-10,5.1-12.4,10.2c-1.6,3.5-1.6,11.3,0.1,14.8c2.1,4.6,7.1,9,11.7,10.4C1429.7,5914.2,1434.9,5913.9,1437.9,5912.8z"/>
	<path style="fill:#FFFFFF;" d="M1609.2,5919.6c-8.6-1.7-16.5-8.3-19.2-16c-3.9-11.1,0.6-23.4,10.7-29.3c7.4-4.3,16.8-4.8,24.5-1.3
		c4,1.9,9,6.5,10.9,10.3l1.1,2.2h-3.5h-3.6l-2.2-2.6c-1.4-1.6-3.4-3.1-5.2-4.1c-2.8-1.4-3.5-1.5-8.8-1.5c-5,0-6.1,0.2-8.3,1.2
		c-3.5,1.8-7,5.3-8.7,9.2c-1.4,2.8-1.6,3.9-1.6,7.5c0,3.7,0.2,4.7,1.6,7.4c1.9,3.9,5.8,7.6,9.8,9.5c2.5,1.1,3.7,1.4,7.2,1.3
		c6.4-0.1,11.2-2.4,14.6-7c1.6-2.1,1.6-2.1,5.1-2.1h3.6l-0.6,1.4c-2.3,6.1-10.1,12.2-17.7,13.7
		C1615.8,5920.2,1612.3,5920.3,1609.2,5919.6z"/>
	<path style="fill:#FFFFFF;" d="M1668.6,5919.6c-8.6-1.5-16.8-9.1-19.2-18c-1-3.9-0.9-10.1,0.3-13.9c4.7-15.1,23.2-22,35.9-13.2
		c10.6,7.3,14.2,20.4,8.6,31.8c-1.5,3-6.6,8.6-9.5,10.3C1680.4,5919.2,1673.7,5920.4,1668.6,5919.6z M1678.8,5912.5
		c3.5-1.2,7.8-5.3,9.8-9.5c1.5-3,1.7-3.9,1.7-7.8c0-3.8-0.2-4.7-1.7-7.8c-2.1-4.3-6.3-8.3-10.1-9.5c-3.7-1.3-9.8-0.9-13.2,0.7
		c-3.4,1.6-6.8,5.2-8.5,8.9c-1.1,2.4-1.4,3.8-1.5,6.9c-0.1,5.3,0.4,7.3,2.8,10.8c2.1,3.2,5.5,6,8.7,7.2
		C1669.6,5913.6,1675.8,5913.5,1678.8,5912.5z"/>
	<path style="fill:#FFFFFF;" d="M1732.3,5919.8c-5.3-0.7-10.7-3.7-14.6-8c-6.2-6.9-8.1-16.2-5.1-24.9c3.7-10.9,14.9-17.7,26.2-15.9
		c13.1,2,22.5,14.9,20.4,28c-1.7,10.5-10.1,19-20.4,20.6C1735.4,5920.2,1735.1,5920.2,1732.3,5919.8z M1742.9,5911.8
		c3.6-1.8,6.2-4.5,8.3-8.5c1.3-2.5,1.5-3.3,1.5-8c0-5-0.1-5.4-1.8-8.5c-2.1-3.9-4.9-6.5-8.8-8.3c-2.5-1.2-3.4-1.3-7.4-1.1
		c-3.8,0.2-5,0.5-7.3,1.7c-9.7,5.3-12.6,18.5-6,27.2c2.1,2.8,6,5.7,8.7,6.5c0.9,0.3,3.4,0.5,5.6,0.5
		C1739.2,5913.4,1740.2,5913.2,1742.9,5911.8z"/>
	<path style="fill:#FFFFFF;" d="M1889.2,5919c-9.8-3.4-16.2-12.4-16.2-23.1c0-7.7,2.6-13.5,8.2-18.7c3.4-3.1,5.8-4.4,10-5.5
		c7.4-1.9,15-0.1,21.3,5.2l2.6,2.1l-0.3-4c-0.4-4.9-1.9-8.3-5.3-11.4c-3.7-3.4-6.5-4.5-11.5-4.5c-3.2,0-4.8,0.3-6.8,1.2
		c-3.8,1.7-7,4.6-8.7,7.8l-1.6,2.8h-2.8c-3.4,0-3.4-0.2-1.3-4.5c3.6-7.3,10.6-11.8,19.4-12.6c6.8-0.6,14.5,2.1,19.5,7
		c1.1,1,2.7,3.5,3.7,5.3l1.7,3.4l0.2,14.2c0.2,15.2-0.1,17.8-2.4,22.6c-1.6,3.4-5.6,7.9-9.1,10.1
		C1903.8,5920.3,1895.8,5921.2,1889.2,5919z M1904.9,5912.1c3.2-1.8,6.3-5,8-8.5c0.9-1.9,1.3-3.6,1.4-7.3c0.2-4.3,0.1-5.1-1.2-7.8
		c-2.1-4.6-4.6-7.2-8.5-9.2c-3.1-1.5-4-1.7-7.5-1.7c-6.9,0.1-12.4,3.5-15.8,9.7c-1.7,3.1-1.8,3.6-1.8,8.3s0.1,5.2,1.8,8.3
		c2.2,4,6,7.5,9.6,9C1895,5914.4,1901.1,5914.1,1904.9,5912.1z"/>
	<path style="fill:#FFFFFF;" d="M2074.2,5919.6c-4-0.8-9.8-4-13.1-7.3c-9.3-9.3-9.5-24.1-0.6-33.4c5.3-5.6,11.3-8.1,19.2-8.1
		c9.7,0.1,16.6,3.9,21.6,12.2c0.6,1,1.2,2,1.2,2.3c0,0.2-1.5,0.3-3.4,0.3h-3.4l-3.1-3c-4-4-7.3-5.3-13.7-5.3
		c-5.9,0-9.6,1.6-13.6,5.9c-4.8,5.3-6.2,12-3.7,18.5c1.4,3.9,6,8.5,10.2,10.5c7.4,3.4,18.2,0.5,22.2-5.9c1.1-1.8,1.2-1.8,4.8-1.8
		c2,0,3.6,0.1,3.6,0.3c0,1.2-3.1,5.9-5.2,8C2091.3,5918.6,2082.5,5921.2,2074.2,5919.6z"/>
	<path style="fill:#FFFFFF;" d="M2153.8,5919.3c-4.1-1.1-7.7-3.2-11-6.5c-6.4-6.4-8.8-15.1-6.5-23.8c2.3-8.9,10.7-16.5,20.1-18.1
		c9.2-1.6,20.2,3.7,24.6,12c0.9,1.7,1.7,3.4,1.7,3.7c0,0.4-1.2,0.6-3.3,0.6c-3.2,0-3.3-0.1-4.3-1.9c-0.5-1-2.1-2.9-3.6-4.2
		c-3.4-3-6.9-4.1-12.6-3.8c-4.9,0.3-7.5,1.4-11.2,4.8c-2.4,2.3-5.3,7.5-5.3,9.7v1.2h21h21v3c0,8.3-5.3,17.1-12.9,21.2
		C2166.1,5920,2159.3,5920.8,2153.8,5919.3z M2166.6,5912.3c3.7-1.4,7.7-5,9.4-8.4c2.5-5,3.8-4.6-16.2-4.6
		c-13.7,0-17.6,0.2-17.6,0.7c0.1,1,2,5.2,3.5,7c1.5,2,5.2,4.7,8,5.7C2156.7,5913.7,2163.2,5913.6,2166.6,5912.3z"/>
	<path style="fill:#FFFFFF;" d="M2217.7,5919.6c-6.1-1-12.3-5.1-15.9-10.6c-2.8-4.2-4-8.4-4-13.7c0-17.1,16.5-28.9,32.4-23.1
		c2.7,0.9,4.9,2.4,7.6,5l1.9,1.8v-3.5v-3.5h3.2h3.1l-0.2,14.8c-0.2,13.7-0.3,15-1.3,17.6C2240.3,5914.9,2228.7,5921.4,2217.7,5919.6
		z M2229.1,5912.1c7.3-3.4,11.5-11.8,10.1-19.9c-0.7-4-2-6.7-4.9-9.7c-3.4-3.6-6.4-5-11.6-5.2c-3.9-0.2-4.7-0.1-7.6,1.4
		c-4,1.8-7.3,5.1-9.2,9c-1.2,2.5-1.4,3.6-1.4,7.6c0,5.2,0.9,8.1,3.8,11.7c3.5,4.3,7.8,6.3,13.9,6.3
		C2225.5,5913.4,2226.9,5913.1,2229.1,5912.1z"/>
	<path style="fill:#FFFFFF;" d="M2410.9,5919.2c-13.9-4.5-20.9-20.5-14.6-34c1.8-4,6.8-9.3,10.4-11.3c8.4-4.6,18.2-3.7,26.1,2.4
		l3.5,2.7l-0.4-3.8c-0.2-2.1-0.8-4.8-1.3-6.1c-1.5-3.2-4.8-6.6-8.3-8.3c-2.6-1.3-3.7-1.5-7.2-1.5c-3.5,0-4.7,0.2-7.1,1.4
		c-3.8,1.7-7,4.7-8.6,7.9l-1.3,2.5h-2.9c-3.2,0-3.4-0.3-2-3.5c3.1-7.4,10.9-12.8,20-13.6c9.5-0.9,19.8,4.6,23.6,12.7
		c1.4,3,1.4,3.1,1.6,16.7c0.2,14.8-0.1,18-2.3,22.6c-2.8,6-8.7,11.3-14.8,13.2C2421,5920.4,2415,5920.5,2410.9,5919.2z
		 M2424.4,5912.8c3.6-1.3,7.4-5,9.5-8.9c1.4-2.6,1.5-3.3,1.5-8.3c0-5.1-0.1-5.7-1.6-8.3c-0.8-1.6-2.5-3.8-3.6-4.9
		c-6.6-6.8-18-6.4-24.8,0.7c-3.7,3.9-4.7,6.5-4.7,12.5c0,4,0.2,5.4,1.2,7.4c2.1,4.6,7.1,9,11.7,10.4
		C2416.3,5914.2,2421.4,5913.9,2424.4,5912.8z"/>
	<path style="fill:#FFFFFF;" d="M1365.5,5918.9c-5.6-1.7-10.5-6.4-12.8-12.2c-1.1-2.9-1.2-3.8-1.4-18.9l-0.2-15.9h3.4h3.5v15.4
		c0,15,0.1,15.4,1.3,17.9c2.5,5.2,7.1,8.1,12.9,8.1c4.1,0,7-1.2,9.8-4c4-4,4.1-4.2,4.2-21.7l0.2-15.6h3.4h3.4v13.8
		c0,14.8-0.4,18.4-2.4,22.7c-1.9,4-7.1,8.6-11.3,10.1C1375.6,5919.8,1369,5920,1365.5,5918.9z"/>
	<path style="fill:#FFFFFF;" d="M1830.1,5918.6c-3.6-1.3-7-3.9-9.6-7.4c-3.5-4.7-3.7-6.1-4-23.6l-0.2-15.6h3.4h3.5v15.4v15.4
		l1.4,2.7c2.5,5.1,7.1,8,12.8,8s10.3-2.9,12.8-8l1.4-2.7v-15.4V5872h3.4h3.4v14.6c0,15.4-0.3,18.1-2.6,22.6c-1.5,3-5.8,7-9.3,8.7
		C1842.3,5919.9,1834.4,5920.2,1830.1,5918.6z"/>
	<path style="fill:#FFFFFF;" d="M2274.6,5918.8c-3.3-1-5.8-2.7-8.5-5.5c-5.3-5.7-5.6-7-5.9-25.7l-0.2-15.6h3.5h3.5v14.7
		c0,9.5,0.2,15.5,0.6,16.7c0.9,3.2,4.1,6.9,7.2,8.5c2.3,1.2,3.5,1.5,6.3,1.5c5.6-0.1,9.7-2.5,12.6-7.5l1.6-2.7v-15.6V5872h3.4h3.4
		v14.8c0,15.6-0.3,17.8-2.6,22.3c-1.7,3.3-5.9,7.2-9.4,8.9C2286.3,5919.7,2278.7,5920.1,2274.6,5918.8z"/>
	<path style="fill:#FFFFFF;" d="M2351.5,5918.7c-5.5-1.9-10.1-6.4-12.4-12.2c-1.1-2.7-1.2-3.8-1.4-18.7l-0.2-15.9h3.4h3.5v15.4
		c0,14.9,0.1,15.4,1.3,17.9c2.3,5,7.2,8.1,12.9,8.1c4.1,0,7-1.2,9.8-4c4-4,4.1-4.2,4.2-21.7l0.2-15.6h3.4h3.4v13.8
		c0,14.8-0.4,18.4-2.4,22.7c-1.9,4-7.1,8.6-11.3,10.1C2361.7,5920,2355.3,5920,2351.5,5918.7z"/>
	<path style="fill:#FFFFFF;" d="M1330.2,5895.3V5872h3.1h3.1v23.3v23.3h-3.1h-3.1V5895.3z"/>
	<path style="fill:#FFFFFF;" d="M1795.4,5895.3V5872h3.1h3.1v23.3v23.3h-3.1h-3.1V5895.3z"/>
	<path style="fill:#FFFFFF;" d="M2316.7,5895.3V5872h3.1h3.1v23.3v23.3h-3.1h-3.1V5895.3z"/>
</g>
</svg>
