<svg width="163" height="26" viewBox="0 0 163 26" fill="none" xmlns="http://www.w3.org/2000/svg">
<path d="M46.308 15.072C46.0093 16.6587 45.3093 17.9093 44.208 18.824C43.1067 19.72 41.7067 20.168 40.008 20.168C38.6267 20.168 37.4133 19.86 36.368 19.244C35.3227 18.628 34.5107 17.7693 33.932 16.668C33.3533 15.548 33.064 14.2693 33.064 12.832C33.064 11.3947 33.3533 10.1253 33.932 9.024C34.5293 7.92266 35.36 7.07333 36.424 6.476C37.488 5.86 38.7107 5.552 40.092 5.552C41.772 5.552 43.1533 6 44.236 6.896C45.3373 7.792 46.028 9.024 46.308 10.592H43.984C43.76 9.67733 43.2933 8.94933 42.584 8.408C41.8747 7.86666 41.016 7.596 40.008 7.596C38.6453 7.596 37.5347 8.08133 36.676 9.052C35.836 10.0227 35.416 11.2827 35.416 12.832C35.416 14.4 35.836 15.6787 36.676 16.668C37.5347 17.6387 38.6453 18.124 40.008 18.124C41.0533 18.124 41.9307 17.8533 42.64 17.312C43.3493 16.7707 43.8067 16.024 44.012 15.072H46.308Z" fill="#171717"/>
<path d="M55.2417 20.168C53.8604 20.168 52.6284 19.86 51.5457 19.244C50.4817 18.628 49.6511 17.7693 49.0537 16.668C48.4564 15.5667 48.1577 14.2973 48.1577 12.86C48.1577 11.4227 48.4564 10.1533 49.0537 9.052C49.6511 7.95066 50.4817 7.092 51.5457 6.476C52.6284 5.86 53.8604 5.552 55.2417 5.552C56.6231 5.552 57.8457 5.86 58.9097 6.476C59.9924 7.092 60.8324 7.95066 61.4297 9.052C62.0271 10.1533 62.3257 11.4227 62.3257 12.86C62.3257 14.2973 62.0271 15.5667 61.4297 16.668C60.8324 17.7693 59.9924 18.628 58.9097 19.244C57.8457 19.86 56.6231 20.168 55.2417 20.168ZM55.2417 18.124C56.1751 18.124 56.9964 17.9 57.7057 17.452C58.4337 17.004 58.9937 16.3787 59.3857 15.576C59.7777 14.7733 59.9737 13.868 59.9737 12.86C59.9737 11.852 59.7777 10.9467 59.3857 10.144C58.9937 9.34133 58.4337 8.716 57.7057 8.268C56.9964 7.82 56.1751 7.596 55.2417 7.596C54.3084 7.596 53.4777 7.82 52.7497 8.268C52.0404 8.716 51.4897 9.34133 51.0977 10.144C50.7057 10.9467 50.5097 11.852 50.5097 12.86C50.5097 13.868 50.7057 14.7733 51.0977 15.576C51.4897 16.3787 52.0404 17.004 52.7497 17.452C53.4777 17.9 54.3084 18.124 55.2417 18.124Z" fill="#171717"/>
<path d="M80.8906 5.552C82.496 5.552 83.7933 6.056 84.7826 7.064C85.7906 8.072 86.2946 9.64 86.2946 11.768V20H83.9986V11.908C83.9986 10.5267 83.7 9.472 83.1026 8.744C82.524 8.016 81.6933 7.652 80.6106 7.652C79.416 7.652 78.4733 8.072 77.7826 8.912C77.1106 9.752 76.7746 10.9 76.7746 12.356V20H74.4786V11.908C74.4786 10.5267 74.18 9.472 73.5826 8.744C72.9853 8.016 72.136 7.652 71.0346 7.652C69.8773 7.652 68.9533 8.1 68.2626 8.996C67.5906 9.87333 67.2546 11.0307 67.2546 12.468V20H64.9586V5.72H66.9466L67.2546 7.68C68.2813 6.26133 69.672 5.552 71.4266 5.552C72.4533 5.552 73.3586 5.78533 74.1426 6.252C74.9453 6.7 75.5426 7.372 75.9346 8.268C76.9613 6.45733 78.6133 5.552 80.8906 5.552Z" fill="#171717"/>
<path d="M96.4359 5.552C97.7612 5.552 98.9372 5.84133 99.9639 6.42C101.009 6.99866 101.821 7.83867 102.4 8.94C102.997 10.0413 103.296 11.348 103.296 12.86C103.296 14.2973 102.997 15.5667 102.4 16.668C101.821 17.7693 101.009 18.628 99.9639 19.244C98.9185 19.86 97.7425 20.168 96.4359 20.168C95.2785 20.168 94.2892 19.9627 93.4679 19.552C92.6465 19.1227 92.0025 18.544 91.5359 17.816V25.6H89.2399V5.72H91.2279L91.5359 8.016C92.7305 6.37333 94.3639 5.552 96.4359 5.552ZM96.2119 18.124C97.6305 18.124 98.7692 17.6387 99.6279 16.668C100.505 15.6787 100.944 14.4093 100.944 12.86C100.944 11.3107 100.505 10.0507 99.6279 9.08C98.7692 8.09067 97.6305 7.596 96.2119 7.596C95.2972 7.596 94.4759 7.82 93.7479 8.268C93.0385 8.69733 92.4879 9.31333 92.0959 10.116C91.7039 10.9 91.5079 11.796 91.5079 12.804C91.5079 13.8307 91.7039 14.7547 92.0959 15.576C92.4879 16.3787 93.0385 17.004 93.7479 17.452C94.4759 17.9 95.2972 18.124 96.2119 18.124Z" fill="#171717"/>
<path d="M113.172 5.72V7.96H112.024C110.661 7.96 109.681 8.41733 109.084 9.332C108.505 10.2467 108.216 11.376 108.216 12.72V20H105.92V5.72H107.908L108.216 7.876C108.626 7.22267 109.158 6.7 109.812 6.308C110.465 5.916 111.37 5.72 112.528 5.72H113.172Z" fill="#171717"/>
<path d="M113.947 12.86C113.947 11.404 114.227 10.1253 114.787 9.024C115.365 7.92266 116.168 7.07333 117.195 6.476C118.221 5.86 119.397 5.552 120.723 5.552C122.029 5.552 123.187 5.82266 124.195 6.364C125.203 6.90533 125.996 7.68933 126.575 8.716C127.153 9.74267 127.461 10.9467 127.499 12.328C127.499 12.5333 127.48 12.86 127.443 13.308H116.355V13.504C116.392 14.904 116.821 16.024 117.643 16.864C118.464 17.704 119.537 18.124 120.863 18.124C121.889 18.124 122.757 17.872 123.467 17.368C124.195 16.8453 124.68 16.1267 124.923 15.212H127.247C126.967 16.668 126.267 17.8627 125.147 18.796C124.027 19.7107 122.655 20.168 121.031 20.168C119.612 20.168 118.371 19.8693 117.307 19.272C116.243 18.656 115.412 17.7973 114.815 16.696C114.236 15.576 113.947 14.2973 113.947 12.86ZM125.119 11.404C125.007 10.1907 124.549 9.248 123.747 8.576C122.963 7.904 121.964 7.568 120.751 7.568C119.668 7.568 118.716 7.92266 117.895 8.632C117.073 9.34133 116.607 10.2653 116.495 11.404H125.119Z" fill="#171717"/>
<path d="M137.119 5.552C138.855 5.552 140.245 6.07467 141.291 7.12C142.355 8.16533 142.887 9.808 142.887 12.048V20H140.591V12.188C140.591 10.7133 140.255 9.59333 139.583 8.828C138.929 8.044 137.977 7.652 136.727 7.652C135.383 7.652 134.328 8.11867 133.563 9.052C132.797 9.98533 132.415 11.2547 132.415 12.86V20H130.119V5.72H132.107L132.415 7.652C133.497 6.252 135.065 5.552 137.119 5.552Z" fill="#171717"/>
<path d="M147.606 15.296C147.643 16.1547 148.017 16.8547 148.726 17.396C149.454 17.9373 150.387 18.208 151.526 18.208C152.534 18.208 153.346 18.012 153.962 17.62C154.597 17.2093 154.914 16.6773 154.914 16.024C154.914 15.464 154.765 15.0347 154.466 14.736C154.167 14.4373 153.775 14.232 153.29 14.12C152.823 14.008 152.151 13.896 151.274 13.784C150.042 13.6347 149.034 13.4387 148.25 13.196C147.466 12.9533 146.831 12.5707 146.346 12.048C145.861 11.5067 145.618 10.7693 145.618 9.836C145.618 8.996 145.851 8.24933 146.318 7.596C146.803 6.94267 147.457 6.43867 148.278 6.084C149.099 5.71067 150.023 5.524 151.05 5.524C152.73 5.524 154.093 5.916 155.138 6.7C156.202 7.484 156.79 8.604 156.902 10.06H154.606C154.513 9.31333 154.149 8.69733 153.514 8.212C152.879 7.72666 152.086 7.484 151.134 7.484C150.163 7.484 149.379 7.68933 148.782 8.1C148.185 8.492 147.886 9.01466 147.886 9.668C147.886 10.1533 148.026 10.5267 148.306 10.788C148.586 11.0493 148.941 11.2267 149.37 11.32C149.818 11.4133 150.49 11.516 151.386 11.628C152.637 11.7773 153.663 11.9827 154.466 12.244C155.287 12.5053 155.941 12.9253 156.426 13.504C156.93 14.0827 157.182 14.8667 157.182 15.856C157.182 16.7147 156.93 17.4707 156.426 18.124C155.922 18.7773 155.241 19.2813 154.382 19.636C153.523 19.9907 152.571 20.168 151.526 20.168C149.659 20.168 148.157 19.7387 147.018 18.88C145.898 18.0213 145.329 16.8267 145.31 15.296H147.606Z" fill="#171717"/>
<path d="M160.935 0.203999C161.364 0.203999 161.719 0.343998 161.999 0.623998C162.279 0.903998 162.419 1.25866 162.419 1.688C162.419 2.11733 162.279 2.472 161.999 2.752C161.719 3.032 161.364 3.172 160.935 3.172C160.505 3.172 160.151 3.032 159.871 2.752C159.591 2.472 159.451 2.11733 159.451 1.688C159.451 1.25866 159.591 0.903998 159.871 0.623998C160.151 0.343998 160.505 0.203999 160.935 0.203999ZM159.787 5.72H162.083V20H159.787V5.72Z" fill="#171717"/>
<path d="M22.5 13C22.5 18.2467 18.2467 22.5 13 22.5C7.75329 22.5 3.5 18.2467 3.5 13C3.5 7.75329 7.75329 3.5 13 3.5C18.2467 3.5 22.5 7.75329 22.5 13Z" fill="#171717"/>
<path d="M13.7714 7.64286C13.8571 7.64286 13.9464 7.64643 14.0464 7.65C14.6496 7.675 15.1357 7.21786 15.1643 6.62857C15.1893 6.03571 14.7321 5.53571 14.1393 5.51071C14.0107 5.50357 13.8893 5.5 13.7714 5.5H13.7643C12.8107 5.5 11.8679 5.66429 10.9607 5.98929C8.04643 7.03214 5.95357 9.58571 5.5 12.6536C5.41071 13.2357 5.81786 13.7821 6.4 13.8714C6.45357 13.8786 6.50714 13.8821 6.56071 13.8821C7.08571 13.8821 7.53929 13.4893 7.61786 12.9679C7.96071 10.6821 9.51786 8.78214 11.6821 8.00714C12.3571 7.76786 13.0607 7.64286 13.7714 7.64286Z" fill="white"/>
<path d="M13 1C19.6274 1 25 6.37258 25 13C25 19.6274 19.6274 25 13 25C6.37258 25 1 19.6274 1 13C1 6.37258 6.37258 1 13 1Z" stroke="#171717" stroke-width="2"/>
</svg>
