<svg version="1.1" id="Capa_1" xmlns="http://www.w3.org/2000/svg" xmlns:xlink="http://www.w3.org/1999/xlink" x="0px" y="0px"
	 viewBox="0 0 512 512" style="enable-background:new 0 0 512 512;" xml:space="preserve">
<g>
	<g>
		<path d="M86.4,452.8h-9.9c-4.1,0-7.5,3.4-7.5,7.5s3.4,7.5,7.5,7.5h9.9c4.1,0,7.5-3.4,7.5-7.5S90.6,452.8,86.4,452.8z"/>
	</g>
</g>
<g>
	<g>
		<path d="M86.4,253.4h-9.9c-4.1,0-7.5,3.4-7.5,7.5s3.4,7.5,7.5,7.5h9.9c4.1,0,7.5-3.4,7.5-7.5S90.6,253.4,86.4,253.4z"/>
	</g>
</g>
<g>
	<g>
		<path d="M417.6,233.4h-82.8c-4.1,0-7.5,3.4-7.5,7.5s3.4,7.5,7.5,7.5h82.8c4.1,0,7.5-3.4,7.5-7.5S421.8,233.4,417.6,233.4z"/>
	</g>
</g>
<g>
	<g>
		<path d="M417.6,272.3h-82.8c-4.1,0-7.5,3.4-7.5,7.5s3.4,7.5,7.5,7.5h82.8c4.1,0,7.5-3.4,7.5-7.5S421.8,272.3,417.6,272.3z"/>
	</g>
</g>
<g>
	<g>
		<path d="M417.6,311.2h-82.8c-4.1,0-7.5,3.4-7.5,7.5s3.4,7.5,7.5,7.5h82.8c4.1,0,7.5-3.4,7.5-7.5S421.8,311.2,417.6,311.2z"/>
	</g>
</g>
<g>
	<g>
		<path d="M415.8,149.8h-117c-4.1,0-7.5,3.4-7.5,7.5s3.4,7.5,7.5,7.5h117c2.4,0,4.5,2.1,4.5,4.5v17.4c0,2.4-2.1,4.5-4.5,4.5H146.5
			c-2.4,0-4.5-2.1-4.5-4.5v-17.4c0-2.4,2.1-4.5,4.5-4.5h117.3c4.1,0,7.5-3.4,7.5-7.5s-3.4-7.5-7.5-7.5H146.5
			c-10.8,0-19.5,8.7-19.5,19.5v17.4c0,10.8,8.7,19.5,19.5,19.5h269.3c10.8,0,19.5-8.7,19.5-19.5v-17.4
			C435.3,158.6,426.6,149.8,415.8,149.8z"/>
	</g>
</g>
<g>
	<g>
		<path d="M504.5,223c-4.1,0-7.5,3.4-7.5,7.5v139.4c0,13.4-10.9,24.3-24.3,24.3c-15.5,0-294.3,0-309.7,0v-20.3h303.4
			c5.7,0,10.3-4.6,10.3-10.3c0-13.3,0-287.2,0-301.1c0-5.7-4.6-10.3-10.3-10.3c-7.5,0-352.6,0-370.2,0c-5.7,0-10.3,4.6-10.3,10.3
			c0,5.2,0,156.6,0,164.2H65.6V56.1c0-13.4,10.9-24.3,24.3-24.3h382.9c13.4,0,24.3,10.9,24.3,24.3v139.4c0,4.1,3.4,7.5,7.5,7.5
			s7.5-3.4,7.5-7.5V56.1c0-21.7-17.6-39.3-39.3-39.3H89.8c-21.7,0-39.3,17.6-39.3,39.3v170.5H26.8C12,226.6,0,238.6,0,253.4v32.5
			v33.3c0,1.9,0,145.8,0,149.2c0,14.8,12,26.8,26.8,26.8h109.4c14.8,0,26.8-12,26.8-26.8c0-4.4,0-51.5,0-59.2h58v35.1h-24.3
			c-11,0-19.9,8.9-19.9,19.9v11.1c0,11,8.9,19.9,19.9,19.9h169.1c11,0,19.9-8.9,19.9-19.9v-11.1c0-11-8.9-19.9-19.9-19.9h-24.3
			v-35.1h131.2c21.6,0,39.3-17.6,39.3-39.3V230.5C512,226.3,508.6,223,504.5,223z M163,67.1h298.7v38.1H163V67.1z M100.9,67.1H148
			v38.1h-47.1V67.1z M15,293.4h18.7v18.3H15V293.4z M148,468.4c0,6.5-5.3,11.8-11.8,11.8H26.8c-6.5,0-11.8-5.3-11.8-11.8v-28h133
			V468.4z M148,425.4H15v-98.7c5.9,0,127.3,0,133,0C148,337.6,148,414.6,148,425.4z M148,311.7H48.7v-18.3H148L148,311.7L148,311.7z
			 M148,278.4c-5.7,0-127.2,0-133,0v-25c0-6.5,5.3-11.8,11.8-11.8c11.8,0,94.3,0,106,0c8.4,0,15.2,6.8,15.2,15.2V278.4z M163,358.9
			v-23.3c1.4,0.3,2.9,0.5,4.5,0.5h119c10.8,0,19.5-8.7,19.5-19.5V243c0-10.8-8.7-19.5-19.5-19.5h-119c-6.5,0-12.2,3.2-15.8,8.1
			c-4.4-3.1-9.7-5-15.5-5h-3.4h-32V120.2c14.4,0,341.2,0,360.8,0v238.6L163,358.9L163,358.9z M163,316.6c0-47.2,0-26.4,0-73.6
			c0-2.4,2.1-4.5,4.5-4.5h119c2.4,0,4.5,2.1,4.5,4.5v73.6c0,2.4-2.1,4.5-4.5,4.5h-119C165.1,321.1,163,319,163,316.6z M236,409.2
			h90.5v35.1H236L236,409.2L236,409.2z M365.8,459.2c2.7,0,4.9,2.2,4.9,4.9v11.1c0,2.7-2.2,4.9-4.9,4.9H196.7
			c-2.7,0-4.9-2.2-4.9-4.9v-11.1c0-2.7,2.2-4.9,4.9-4.9C202.3,459.2,357,459.2,365.8,459.2z"/>
	</g>
</g>
</svg>
