<svg version="1.1" id="Capa_1" xmlns="http://www.w3.org/2000/svg" xmlns:xlink="http://www.w3.org/1999/xlink" x="0px" y="0px"
	 viewBox="0 0 512 512" style="enable-background:new 0 0 512 512;" xml:space="preserve">
<g>
	<g>
		<path d="M86.4,452.8h-9.9c-4.1,0-7.5,3.4-7.5,7.5s3.4,7.5,7.5,7.5h9.9c4.1,0,7.5-3.4,7.5-7.5S90.6,452.8,86.4,452.8z"/>
	</g>
</g>
<g>
	<g>
		<path d="M86.4,253.4h-9.9c-4.1,0-7.5,3.4-7.5,7.5s3.4,7.5,7.5,7.5h9.9c4.1,0,7.5-3.4,7.5-7.5S90.6,253.4,86.4,253.4z"/>
	</g>
</g>
<g style="display:none;">
	<g style="display:inline;">
		<path d="M415.8,149.8h-117c-4.1,0-7.5,3.4-7.5,7.5s3.4,7.5,7.5,7.5h117c2.4,0,4.5,2.1,4.5,4.5v17.4c0,2.4-2.1,4.5-4.5,4.5H146.5
			c-2.4,0-4.5-2.1-4.5-4.5v-17.4c0-2.4,2.1-4.5,4.5-4.5h117.3c4.1,0,7.5-3.4,7.5-7.5s-3.4-7.5-7.5-7.5H146.5
			c-10.8,0-19.5,8.7-19.5,19.5v17.4c0,10.8,8.7,19.5,19.5,19.5h269.3c10.8,0,19.5-8.7,19.5-19.5v-17.4
			C435.3,158.6,426.6,149.8,415.8,149.8z"/>
	</g>
</g>
<line class="computer-line" style="fill:none;stroke:#1dbd9d;stroke-width:15;stroke-linecap:round;stroke-miterlimit:10;stroke-dasharray:85;stroke-dashoffset:85" x1="340.8" y1="240.9" x2="425.3" y2="240.9"/>
<line class="computer-line" style="fill:none;stroke:#1dbd9d;stroke-width:15;stroke-linecap:round;stroke-miterlimit:10;stroke-dasharray:85;stroke-dashoffset:85" x1="340.8" y1="279.8" x2="425.3" y2="279.8"/>
<line class="computer-line" style="fill:none;stroke:#1dbd9d;stroke-width:15;stroke-linecap:round;stroke-miterlimit:10;stroke-dasharray:85;stroke-dashoffset:85" x1="340.8" y1="318.7" x2="425.3" y2="318.7"/>
<path id="computer-header" style="fill:none;stroke:#1dbd9d;stroke-width:15;stroke-linecap:round;stroke-linejoin:round;stroke-miterlimit:10;stroke-dasharray:610;stroke-dashoffset:610" d="
	M262,157.5H148c0,0-13,5-13,20.5s13,21,13,21h269.5c0,0,11.5-7.5,11.5-21s-11-20.5-11-20.5H302.5"/>
<rect id="computer-section" x="156.7" y="230.5" style="fill:none;stroke:#1dbd9d;stroke-width:13;stroke-linecap:round;stroke-linejoin:round;stroke-miterlimit:10;" width="143" height="99.2"/>
<rect x="97.4" y="230.5" style="fill:#FFFFFF;" width="57.7" height="194.8"/>
<path style="fill:none;stroke:#1dbd9d;stroke-width:16;stroke-linecap:round;stroke-linejoin:round;stroke-miterlimit:10;" d="
	M140.8,485.6H22.2c-7.8,0-14.2-6.3-14.2-14.2V248.1c0-7.8,6.3-14.2,14.2-14.2h118.7c7.8,0,14.2,6.3,14.2,14.2v223.3
	C155,479.3,148.7,485.6,140.8,485.6z"/>
<path d="M503.6,203c4.1,0,7.5-3.4,7.5-7.5V56.1c0-21.7-17.6-39.3-39.3-39.3h-383c-21.7,0-39.3,17.6-39.3,39.3v170.5H25.8
	C11,226.6-1,238.6-1,253.4v32.5v33.3c0,1.9,0,145.8,0,149.2c0,14.8,12,26.8,26.8,26.8h109.4c14.8,0,26.8-12,26.8-26.8
	c0-4.4,0-51.5,0-59.2h58v35.1h-24.3c-11,0-19.9,8.9-19.9,19.9v11.1c0,11,8.9,19.9,19.9,19.9h169.1c11,0,19.9-8.9,19.9-19.9v-11.1
	c0-11-8.9-19.9-19.9-19.9h-24.3v-35.1h131.2c21.6,0,39.3-17.6,39.3-39.3V230.5c0-4.2-3.4-7.5-7.5-7.5c-4.1,0-7.5,3.4-7.5,7.5v139.4
	c0,13.4-10.9,24.3-24.3,24.3c-15.5,0-294.3,0-309.7,0v-20.3h303.4c5.7,0,10.3-4.6,10.3-10.3c0-13.3,0-287.2,0-301.1
	c0-5.7-4.6-10.3-10.3-10.3c-7.5,0-352.6,0-370.2,0c-5.7,0-10.3,4.6-10.3,10.3c0,5.2,0,156.6,0,164.2H64.6V56.1
	c0-13.4,10.9-24.3,24.3-24.3h382.9c13.4,0,24.3,10.9,24.3,24.3v139.4C496.1,199.6,499.5,203,503.6,203z M364.8,459.2
	c2.7,0,4.9,2.2,4.9,4.9v11.1c0,2.7-2.2,4.9-4.9,4.9H195.7c-2.7,0-4.9-2.2-4.9-4.9v-11.1c0-2.7,2.2-4.9,4.9-4.9
	C201.3,459.2,356,459.2,364.8,459.2z M235,409.2h90.5v35.1H235V409.2z M14,293.4h18.7v18.3H14V293.4z M147,468.4
	c0,6.5-5.3,11.8-11.8,11.8H25.8c-6.5,0-11.8-5.3-11.8-11.8v-28h133V468.4z M147,425.4H14v-98.7c5.9,0,127.3,0,133,0
	C147,337.6,147,414.6,147,425.4z M147,311.7H47.7v-18.3H147V311.7z M162,67.1h298.7v38.1H162V67.1z M99.9,67.1H147v38.1H99.9V67.1z
	 M99.8,120.2c14.4,0,341.2,0,360.8,0v238.6L162,358.9v-15.4h-12.5V230.8c-4.2-2.6-9-4.2-14.3-4.2h-3.4h-32V120.2z M131.8,241.6
	c8.4,0,15.2,6.8,15.2,15.2v21.6c-5.7,0-127.2,0-133,0v-25c0-6.5,5.3-11.8,11.8-11.8C37.6,241.6,120.1,241.6,131.8,241.6z"/>
</svg>
