<?xml version="1.0" encoding="utf-8"?>
<!-- Generator: Adobe Illustrator 22.1.0, SVG Export Plug-In . SVG Version: 6.00 Build 0)  -->
<svg version="1.1" id="Layer_1" xmlns="http://www.w3.org/2000/svg" xmlns:xlink="http://www.w3.org/1999/xlink" x="0px" y="0px"
	 viewBox="0 0 564.3 108.9" style="enable-background:new 0 0 564.3 108.9;" xml:space="preserve">
<title>Dissimilar Logo</title>
<path d="M33.3,1.2H0v105.3h34.1c8.8,0,27-1.1,41.5-15.8C84.3,82,90,70,90,53.5s-5.8-28.8-15.2-37.8C61.9,3.2,47.2,1.2,33.3,1.2z
	 M54.8,78.9c-7.9,6.6-19,7.1-24,7.1h-6.5V21.7h6.5c7.4,0,17.7,1.1,25.6,9c4.1,4.1,8.7,11.4,8.7,22.8C65.1,65.1,60.5,74.1,54.8,78.9
	L54.8,78.9z"/>
<path d="M102.7,26.5c7.3,0,13.3-5.9,13.3-13.3C116,5.9,110,0,102.7,0c-7.3,0-13.3,5.9-13.3,13.3c-0.1,7.3,5.8,13.2,13,13.3
	C102.5,26.5,102.6,26.5,102.7,26.5z"/>
<path d="M236.1,0c-7.3,0-13.3,5.9-13.3,13.2s5.9,13.3,13.2,13.3c7.3,0,13.3-5.9,13.3-13.3c0,0,0,0,0,0c0.1-7.3-5.8-13.2-13-13.3
	C236.2,0,236.2,0,236.1,0z"/>
<path d="M224.7,77c-0.8-3.1-2.5-6-4.9-8.1c-3.6-3.3-7.7-4.9-11.7-6.2l-6-1.9c-2.8-1-5.2-1.4-6.8-2.4c-1.3-0.5-2.1-1.8-2.2-3.1
	c0.1-1.2,0.6-2.3,1.4-3.2c1.4-1.4,4.1-2,6.5-2c4.4,0,9,1.9,12.5,3.9l9-14.4c-5.7-3.3-13-6-23.4-6c-6.5,0-15,1.3-21.3,7.1
	c-4.4,4.2-6.9,10.1-6.8,16.3c-0.2,4.8,1.7,9.4,5.1,12.8c3.2,3,7.1,5.2,11.4,6.4l5.7,1.7c2.4,0.6,4.7,1.4,6.9,2.5
	c1.5,0.8,2.5,2.4,2.5,4.1c-0.1,1.8-0.9,3.5-2.4,4.6c-2.1,1.6-5.7,1.6-7.1,1.6c-3.3,0-6.5-0.7-9.5-2.2c-2.1-1.1-4.1-2.3-6-3.8
	l-8.1-8.1l-7.4,7.4c-2.2,1.8-4.5,3.3-7,4.5c-2.9,1.5-6.2,2.2-9.5,2.2c-1.4,0-5.1,0-7.1-1.6c-1.4-1.1-2.3-2.8-2.4-4.6
	c0-1.7,1-3.3,2.5-4.1c2.2-1.1,4.5-2,6.9-2.5l5.7-1.7c4.2-1.2,8.1-3.4,11.4-6.5c3.4-3.4,5.2-8,5.1-12.8c0.1-6.1-2.3-12-6.8-16.3
	c-6.3-5.8-14.9-7.1-21.3-7.1c-10.4,0-17.7,2.7-23.4,6l9,14.4c3.5-2.1,8.1-3.9,12.5-3.9c2.4,0,5.1,0.6,6.5,2c0.8,0.8,1.3,2,1.4,3.2
	c-0.1,1.4-0.9,2.6-2.2,3.1c-1.6,1-3.9,1.4-6.8,2.4l-6,1.9c-3.9,1.3-8.1,2.8-11.7,6.2c-2.4,2.1-4.1,4.9-4.9,8V36.1H91.3v70.4h22.7
	V88.4c1,4.7,3.3,9.1,6.6,12.5c7,6.9,15.5,8,22.9,8c8.4,0,17.4-1.6,25.8-7.6c8.3,6,17.4,7.6,25.8,7.6c7.4,0,16-1.1,22.9-8
	c3.4-3.4,5.7-7.8,6.7-12.5v18.2h22.7V36.1h-22.7V77z"/>
<path d="M339.2,34.4c-9.8-0.3-18.9,4.7-24,13c-1.7-4.1-4.7-7.5-8.5-9.8c-4.7-2.8-10.3-3.2-13.3-3.2c-5.4,0-13.9,1.1-19.7,10v-8.2
	h-22.8v70.4h22.7v-36c0-2.4,0.2-10.3,4.4-14.4c2.2-1.9,5-3,7.9-2.8c2.8-0.1,5.6,0.9,7.6,2.8c3.5,3.5,3.6,9,3.6,13.8v36.6H320V71.5
	c0-4.6,0.5-10.1,3.5-13.9c2.1-2.7,5.4-4.3,8.8-4.3c3.2,0,6.2,1.3,8.2,3.8c3,3.8,3,10.1,3,13.7v35.7h22.7V62c0-5.1-0.5-14.5-7.3-21
	C354.7,36.9,347.8,34.4,339.2,34.4z"/>
<path d="M381.3,0c-7.3,0-13.3,5.9-13.3,13.3c0,7.3,5.9,13.3,13.3,13.3c7.3,0,13.3-5.9,13.3-13.3c0,0,0,0,0,0
	c0.1-7.3-5.8-13.2-13-13.3C381.5,0,381.4,0,381.3,0z"/>
<rect x="370" y="36.1" width="22.7" height="70.4"/>
<path d="M476.1,44c-6.5-8.9-16.1-10.3-22.1-10.3c-9.8,0-18.3,3.5-24.5,9.6c-5.1,5.3-8.6,12-10,19.2V0h-22.7v106.5h22.7V80.6
	c1.4,6.6,4.7,12.6,9.3,17.5c7.7,8.2,16.3,10.7,26.4,10.7c5.8,0,14.7-1.4,20.8-10.9v8.5h22.7V36.1h-22.7V44z M472,84.4
	c-3.1,3.1-7.4,4.9-11.8,4.9c-5,0-9.9-1.9-13.4-5.5c-3.1-3.4-4.8-8-4.7-12.6c-0.1-4.8,1.8-9.4,5.2-12.8c3.4-3.2,7.8-5,12.5-5.1
	c4.7,0,9.2,1.8,12.6,4.9C479.4,65.5,479.3,77.2,472,84.4L472,84.4z"/>
<path d="M552,57.4v-22c-2.4-0.8-4.9-1.1-7.4-1.1c-4.4,0-8.4,0.6-12.2,3c-3.8,2.4-6.8,5.8-8.8,9.8v-11h-22.8v70.4h22.8V77.9
	c0-6,0.5-13.6,5.5-19c2.9-3.1,7.1-4.9,11.4-4.7C544.5,54.4,548.4,55.5,552,57.4z"/>
<rect x="539.6" y="81.8" width="24.7" height="24.7"/>
</svg>
