<svg width="270px" height="40px" viewBox="0 0 270 40" version="1.1" xmlns="http://www.w3.org/2000/svg" xmlns:xlink="http://www.w3.org/1999/xlink">
    <g id="Logo-/-Light" stroke="none" stroke-width="1" fill="none" fill-rule="evenodd" transform="translate(0.000000, -1.000000)">
        <g id="Logo-Light" transform="translate(0.000000, 1.000000)" fill="#757575">
            <path d="M87.5989565,17.9714783 C87.3589565,17.111913 86.9298261,16.301913 86.3128696,15.6366957 C85.358087,14.5853913 84.0250435,14.0153913 82.6867826,14.0153913 C81.3067826,14.0153913 80.0193913,14.5853913 79.0189565,15.6366957 C78.4476522,16.301913 78.0185217,17.111913 77.7328696,17.9714783 L87.5989565,17.9714783 Z M90.6954783,26.7393043 C88.7402609,29.074087 85.7376522,30.551913 82.4533043,30.551913 C76.4454783,30.551913 71.5385217,25.6436522 71.5385217,19.6371304 C71.5385217,13.5888696 76.4454783,8.72365217 82.4533043,8.72365217 C88.4546087,8.72365217 93.3628696,13.5888696 93.3628696,19.6371304 C93.3628696,20.3062609 93.315913,20.9245217 93.1737391,21.5923478 L77.8267826,21.5923478 C78.1124348,22.3553913 78.495913,23.0232174 79.0189565,23.5958261 C80.0193913,24.6888696 81.3067826,25.2601739 82.6867826,25.2601739 C83.978087,25.2601739 85.2641739,24.6888696 86.2137391,23.7353913 L90.6954783,26.7393043 Z" id="E"></path>
            <polygon id="V" points="102.563217 29.9806087 92.3188696 9.43973913 98.2262609 9.43973913 103.469739 19.9736522 108.663652 9.43973913 114.571043 9.43973913 104.326696 29.9806087"></polygon>
            <path d="M131.116304,19.6885217 C131.116304,18.2093913 130.588043,16.7798261 129.540652,15.7311304 C128.538913,14.6824348 127.20587,14.1124348 125.777609,14.1124348 C124.348043,14.1124348 123.013696,14.6824348 121.965,15.7311304 C120.964565,16.7798261 120.389348,18.2093913 120.389348,19.6885217 C120.389348,21.1624348 120.964565,22.5463478 121.965,23.6406957 C123.013696,24.6893913 124.348043,25.2593913 125.777609,25.2593913 C127.20587,25.2593913 128.538913,24.6893913 129.540652,23.6406957 C130.588043,22.5463478 131.116304,21.1624348 131.116304,19.6885217 Z M137.118913,9.44026087 L137.118913,29.9811304 L132.067174,29.9811304 L132.067174,27.9776522 C130.162826,29.5976522 127.681957,30.5511304 125.01587,30.5511304 C118.962391,30.5511304 114.102391,25.6911304 114.102391,19.6885217 C114.102391,13.6350435 118.962391,8.822 125.01587,8.822 C127.681957,8.822 130.162826,9.77156522 132.067174,11.3954783 L132.543261,9.44026087 L137.118913,9.44026087 Z" id="A"></path>
            <path d="M156.184174,15.7308696 C155.182435,14.6365217 153.849391,14.0613043 152.418522,14.0613043 C150.991565,14.0613043 149.607652,14.6365217 148.605913,15.7308696 C147.605478,16.7795652 147.034174,18.1634783 147.034174,19.6373913 C147.034174,21.1621739 147.605478,22.5473913 148.605913,23.5947826 C149.607652,24.6421739 150.991565,25.2147826 152.418522,25.2147826 C153.849391,25.2147826 155.182435,24.6421739 156.184174,23.5947826 C157.185913,22.5473913 157.755913,21.1621739 157.755913,19.6373913 C157.755913,18.1634783 157.185913,16.7795652 156.184174,15.7308696 Z M145.556348,11.8243478 C147.511565,9.91608696 150.229826,8.72391304 153.181565,8.72391304 C159.188087,8.72391304 164.048087,13.636087 164.048087,19.6373913 C164.048087,25.6908696 159.188087,30.5508696 153.181565,30.5508696 C150.229826,30.5508696 147.511565,29.4082609 145.556348,27.4543478 L145.556348,37.5186957 L139.980261,39.6865217 L139.980261,9.44 L145.129826,9.44 L145.556348,11.8243478 Z" id="P"></path>
            <path d="M182.109391,19.6375217 C182.109391,18.1636087 181.586348,16.7796957 180.584609,15.731 C179.535913,14.6366522 178.249826,14.0614348 176.772,14.0614348 C175.392,14.0614348 174.010696,14.6366522 173.057217,15.731 C171.958957,16.7796957 171.434609,18.2092609 171.434609,19.6883913 C171.434609,21.2131739 171.958957,22.5944783 173.057217,23.6875217 C174.010696,24.7362174 175.392,25.3114348 176.772,25.3114348 C178.249826,25.3114348 179.535913,24.7362174 180.584609,23.6875217 C181.586348,22.5944783 182.109391,21.1623043 182.109391,19.6375217 M188.114609,19.6883913 C188.114609,25.7379565 183.06287,30.551 176.725043,30.551 C170.434174,30.551 165.385043,25.7379565 165.385043,19.6883913 C165.385043,13.6831739 170.434174,8.82186957 176.725043,8.82186957 C183.06287,8.82186957 188.114609,13.6831739 188.114609,19.6883913" id="O"></path>
            <path d="M195.505696,11.7745217 C197.030478,9.77234783 199.748739,8.9153913 202.463087,8.9153913 C203.655261,8.9153913 204.847435,9.10713043 205.943087,9.48669565 L203.608304,14.7771304 C200.128304,13.2523478 196.601348,15.3471304 195.983087,18.6366957 L195.983087,29.9806087 L190.027435,29.9806087 L190.027435,9.43973913 L194.650043,9.43973913 L195.505696,11.7745217 Z" id="R"></path>
            <path d="M222.244826,19.6885217 C222.244826,18.2093913 221.720478,16.7798261 220.669174,15.7311304 C219.667435,14.6824348 218.334391,14.1124348 216.90613,14.1124348 C215.476565,14.1124348 214.142217,14.6824348 213.093522,15.7311304 C212.093087,16.7798261 211.51787,18.2093913 211.51787,19.6885217 C211.51787,21.1624348 212.093087,22.5463478 213.093522,23.6406957 C214.142217,24.6893913 215.476565,25.2593913 216.90613,25.2593913 C218.334391,25.2593913 219.667435,24.6893913 220.669174,23.6406957 C221.720478,22.5463478 222.244826,21.1624348 222.244826,19.6885217 Z M228.247435,9.44026087 L228.247435,29.9811304 L223.195696,29.9811304 L223.195696,27.9776522 C221.291348,29.5976522 218.810478,30.5511304 216.144391,30.5511304 C210.092217,30.5511304 205.230913,25.6911304 205.230913,19.6885217 C205.230913,13.6350435 210.092217,8.822 216.144391,8.822 C218.810478,8.822 221.291348,9.77156522 223.195696,11.3954783 L223.671783,9.44026087 L228.247435,9.44026087 Z" id="A"></path>
            <polygon id="T" points="246.077217 9.43973913 246.077217 15.0145217 241.31113 15.0145217 241.31113 29.9806087 235.257652 29.9806087 235.257652 15.0145217 230.967652 15.0145217 230.967652 9.43973913 235.257652 9.43973913 235.257652 2.65713043 241.31113 0.304086957 241.31113 9.43973913"></polygon>
            <path d="M263.474478,17.9714783 C263.234478,17.111913 262.805348,16.301913 262.188391,15.6366957 C261.233609,14.5853913 259.900565,14.0153913 258.562304,14.0153913 C257.182304,14.0153913 255.894913,14.5853913 254.894478,15.6366957 C254.323174,16.301913 253.894043,17.111913 253.608391,17.9714783 L263.474478,17.9714783 Z M266.571,26.7393043 C264.615783,29.074087 261.613174,30.551913 258.328826,30.551913 C252.321,30.551913 247.414043,25.6436522 247.414043,19.6371304 C247.414043,13.5888696 252.321,8.72365217 258.328826,8.72365217 C264.33013,8.72365217 269.238391,13.5888696 269.238391,19.6371304 C269.238391,20.3062609 269.191435,20.9245217 269.049261,21.5923478 L253.702304,21.5923478 C253.987957,22.3553913 254.371435,23.0232174 254.894478,23.5958261 C255.894913,24.6888696 257.182304,25.2601739 258.562304,25.2601739 C259.853609,25.2601739 261.139696,24.6888696 262.089261,23.7353913 L266.571,26.7393043 Z" id="E"></path>
            <g id="Cloud" transform="translate(0.000000, 0.251609)">
                <path d="M34.8760435,23.1181739 L21.573,23.1181739 L27.5364783,11.3007826 C28.9412609,8.44295652 31.7534348,6.66773913 34.8760435,6.66773913 C39.4112609,6.66773913 43.1012609,10.3577391 43.1012609,14.8916522 C43.1012609,19.4281739 39.4112609,23.1181739 34.8760435,23.1181739 Z M11.0677826,23.1181739 C8.61169565,23.1181739 6.61473913,21.119913 6.61473913,18.6638261 C6.61473913,16.2090435 8.61169565,14.212087 11.0677826,14.212087 C13.0777826,14.212087 14.4343043,15.5112174 15.0643043,16.7894783 L16.2095217,19.0629565 L14.163,23.1181739 L11.0677826,23.1181739 Z M34.8760435,0.0520869565 C29.0273478,0.0520869565 24.0186522,3.46686957 21.6003913,8.38295652 L19.7938696,11.9607826 C17.7799565,9.32469565 14.6443043,7.59773913 11.0677826,7.59773913 C4.9556087,7.59773913 0.000391304348,12.5516522 0.000391304348,18.6638261 C0.000391304348,24.6990435 4.83430435,29.5838261 10.836913,29.7090435 L10.8264783,29.7325217 L11.0677826,29.7325217 L29.0038696,29.7325217 L34.8760435,29.7325217 C43.0699565,29.7325217 49.7156087,23.0881739 49.7156087,14.8916522 C49.7156087,6.69643478 43.0699565,0.0520869565 34.8760435,0.0520869565 Z"></path>
            </g>
        </g>
    </g>
</svg>