<?xml version="1.0" encoding="utf-8"?>
<!-- Generator: Adobe Illustrator 22.1.0, SVG Export Plug-In . SVG Version: 6.00 Build 0)  -->
<svg version="1.1" id="Layer_1" xmlns="http://www.w3.org/2000/svg" xmlns:xlink="http://www.w3.org/1999/xlink" x="0px" y="0px"
	 viewBox="0 0 525.9 420" style="enable-background:new 0 0 525.9 420;" xml:space="preserve">
<path style="fill:#FFFFFF;" d="M419.5,191.5c37.6-4.6,73.7-33.7,73.8-88.7C493.1,31.7,432.2,2,349.4,0.1l0-0.1l-5,0
	c-1.2,0-2.4,0-3.6,0L167.1,0l0,0l-17.8,0C46.7,0,2.1,49.4,0.1,115c-3.7,103.5,107.2,161.2,192.8,105l0.1-5.7
	c0.4-0.4-72.3,7.2-93.1-68.4c-2.9-10.6-4.2-24.7-3.7-36.1c1.7-51.2,29.2-84.5,77.2-84.5h34.9c3,5.3,4.8,11.4,5,17.9v333.5
	c-0.6,20.7-17.6,37.3-38.4,37.3h-7.6l-0.1,6h0.1l0,0h182.3l0,0h7.4c101.6,0,169.1-39.9,168.9-117.1
	C526.1,239.1,480.2,197,419.5,191.5z M331.1,392.6l-23.7,0c-2.5-4.9-3.9-10.5-4-16.3V40.6c0-5.4,1.3-10.3,3.6-14.7h13.4
	c46.1-0.1,76.7,24.2,76.8,84.4c-0.1,60.6-35.9,82.3-73.7,82.2l0.1,5.6c53.4-0.1,99.2,27.3,99,97.4
	C422.8,363.6,384.5,392.9,331.1,392.6z"/>
</svg>
