<svg version="1.1" id="Layer_1" xmlns="http://www.w3.org/2000/svg" xmlns:xlink="http://www.w3.org/1999/xlink" x="0px" y="0px"
	 viewBox="0 0 163 21" style="enable-background:new 0 0 163 21;" xml:space="preserve">
<path style="fill:#FFFFFF;" d="M69.6,13.1h10.2l-5.4-8.7l-9.9,15.7H60L72,1.2C72.5,0.4,73.4,0,74.4,0c0.9,0,1.8,0.4,2.3,1.2
	l12.1,18.9h-4.5l-2.1-3.5H71.9L69.6,13.1"/>
<path style="fill:#FFFFFF;" d="M116.4,16.5V0.2h-3.8v18c0,0.5,0.2,1,0.6,1.3c0.4,0.4,0.9,0.6,1.4,0.6H132l2.3-3.5L116.4,16.5"/>
<path style="fill:#FFFFFF;" d="M53.2,13.6c3.7,0,6.7-3,6.7-6.7s-3-6.7-6.7-6.7H36.5v19.9h3.8V3.7h12.6c1.8,0,3.2,1.4,3.2,3.2
	s-1.4,3.2-3.2,3.2H42.1l11.4,10H59l-7.7-6.4L53.2,13.6"/>
<path style="fill:#FFFFFF;" d="M12.9,20.1c-5.5,0-9.9-4.4-9.9-9.9s4.4-9.9,9.9-9.9h11.5c5.5,0,9.9,4.4,9.9,9.9s-4.4,9.9-9.9,9.9
	H12.9 M24.2,16.6c3.6,0,6.4-2.9,6.4-6.4c0-3.6-2.9-6.4-6.4-6.4h-11c-3.5,0-6.4,2.9-6.4,6.4s2.9,6.4,6.4,6.4H24.2"/>
<path style="fill:#FFFFFF;" d="M96.8,20.1c-5.5,0-10-4.4-10-9.9s4.5-9.9,10-9.9h13.7l-2.3,3.5H97c-3.6,0-6.5,2.9-6.5,6.4
	s2.9,6.4,6.5,6.4h13.8l-2.2,3.5H96.8"/>
<path style="fill:#FFFFFF;" d="M143.5,16.6c-2.9,0-5.4-2-6.2-4.7h16.4l2.2-3.5h-18.6c0.8-2.7,3.3-4.7,6.2-4.7h11.2l2.2-3.5h-13.7
	c-5.5,0-9.9,4.4-9.9,9.9s4.4,9.9,9.9,9.9H155l2.2-3.5h-13.7"/>
<path style="fill:#FFFFFF;" d="M159,2.3c0-1,0.8-1.8,1.8-1.8s1.8,0.8,1.8,1.8s-0.8,1.8-1.8,1.8S159,3.3,159,2.3 M160.8,4.6
	c1.2,0,2.2-1,2.2-2.2s-1-2.2-2.2-2.2s-2.2,1-2.2,2.2S159.5,4.6,160.8,4.6 M160.6,1c0.3,0,0.5,0,0.6,0.1c0.5,0.1,0.5,0.6,0.5,0.7
	c0,0,0,0.1,0,0.2c0,0.1-0.1,0.3-0.3,0.4c0,0,0,0-0.1,0.1l0.6,1h-0.6l-0.5-1h-0.3v1H160V1H160.6 M160.7,2.1c0.2,0,0.3,0,0.4-0.2
	c0.1,0,0.1-0.1,0.1-0.2s-0.1-0.2-0.2-0.3c-0.1-0.1-0.2-0.1-0.5-0.1h-0.1V2h0.3"/>
</svg>
