<?xml version="1.0" encoding="utf-8"?>
<!-- Generator: Adobe Illustrator 22.1.0, SVG Export Plug-In . SVG Version: 6.00 Build 0)  -->
<svg version="1.1" id="Layer_1" xmlns="http://www.w3.org/2000/svg" xmlns:xlink="http://www.w3.org/1999/xlink" x="0px" y="0px"
	 viewBox="0 0 341.1 680" style="enable-background:new 0 0 341.1 680;" xml:space="preserve">
<g>
	<g>
		<path style="fill:#1ABC9C;" d="M119.3,566.2v14.5H75.7V680h14.5v-84.8h43.6v14.5h-29.1V680h14.5v-55.7h15.3
			c1.8,8.8,6.8,16.5,13.8,21.8v21.8h14.5v-15.3c2.3,0.5,4.8,0.7,7.3,0.7s4.9-0.3,7.3-0.7v15.3h14.5v-21.8c7-5.2,12-12.9,13.8-21.8
			H221V680h14.5v-70.2h-29.1v-14.5H250V680h14.5v-99.3H221v-14.5h58.1V461.1h-14.5v90.6H221v-7.3c0-2.5-0.2-4.9-0.5-7.3H250V432
			h-14.5v90.6h-19.4c-7.2-15.1-21.6-26.1-38.7-28.5V479h-14.5V494c-17.1,2.5-31.5,13.5-38.7,28.5h-19.4V432H90.2v105.1h29.6
			c-0.3,2.4-0.5,4.8-0.5,7.3v7.3H75.7v-90.6H61.1v105.1H119.3z M191.9,617c0,12-9.8,21.8-21.8,21.8s-21.8-9.8-21.8-21.8v-21.8h43.6
			V617z M133.8,544.4c0-20,16.3-36.3,36.3-36.3s36.3,16.3,36.3,36.3v36.3h-72.7V544.4z"/>
	</g>
</g>
<path style="fill:#1ABC9C;" d="M341.1,101.9c0-0.3,0-0.7-0.1-1c0,0,0,0,0-0.1c0-0.3-0.1-0.6-0.2-0.9c0-0.1,0-0.2-0.1-0.2
	c-0.1-0.2-0.2-0.5-0.2-0.7c0-0.1-0.1-0.2-0.1-0.2c-0.1-0.3-0.3-0.6-0.4-0.9c-0.2-0.3-0.3-0.6-0.5-0.8c-0.1-0.1-0.1-0.1-0.2-0.2
	c-0.2-0.2-0.3-0.4-0.5-0.6c-0.1-0.1-0.1-0.1-0.2-0.2c-0.2-0.2-0.4-0.4-0.7-0.6c0,0,0,0-0.1-0.1c-0.3-0.2-0.5-0.4-0.8-0.6
	c0,0,0,0-0.1,0L174.7,1.1c0,0,0,0-0.1,0c-0.3-0.2-0.6-0.3-0.9-0.4c0,0,0,0-0.1,0c-0.3-0.1-0.6-0.2-0.9-0.3c-0.1,0-0.2,0-0.2-0.1
	c-0.2-0.1-0.5-0.1-0.7-0.1c-0.1,0-0.2,0-0.2,0c-0.3,0-0.6-0.1-1-0.1s-0.7,0-1,0.1c-0.1,0-0.2,0-0.2,0c-0.3,0-0.5,0.1-0.7,0.1
	c-0.1,0-0.2,0-0.2,0.1c-0.3,0.1-0.6,0.2-0.9,0.3c0,0,0,0-0.1,0c-0.3,0.1-0.6,0.3-0.9,0.4c0,0,0,0-0.1,0L4.1,94.8c0,0,0,0-0.1,0
	c-0.3,0.2-0.6,0.4-0.8,0.6c0,0,0,0,0,0c-0.2,0.2-0.5,0.4-0.7,0.6c-0.1,0.1-0.1,0.1-0.2,0.2c-0.2,0.2-0.3,0.4-0.5,0.6
	C1.7,96.9,1.7,97,1.6,97c-0.2,0.2-0.4,0.5-0.5,0.8c0,0,0,0,0,0c0,0,0,0,0,0c-0.2,0.3-0.3,0.6-0.4,0.9c0,0.1-0.1,0.1-0.1,0.2
	c-0.1,0.2-0.2,0.5-0.3,0.7c0,0.1,0,0.2-0.1,0.2c-0.1,0.3-0.1,0.6-0.2,0.9c0,0,0,0.1,0,0.1c0,0.3-0.1,0.7-0.1,1c0,0,0,0,0,0.1v187.5
	c0,0,0,0,0,0.1c0,0.3,0,0.7,0.1,1c0,0,0,0,0,0.1c0,0.3,0.1,0.6,0.2,0.9c0,0.1,0,0.2,0.1,0.2c0.1,0.2,0.2,0.5,0.2,0.7
	c0,0.1,0.1,0.2,0.1,0.2c0.1,0.3,0.3,0.6,0.4,0.9c0,0,0,0,0,0c0.2,0.3,0.4,0.6,0.6,0.9c0.1,0.2,0.3,0.3,0.4,0.5
	c0.1,0.1,0.2,0.2,0.3,0.4c0.2,0.2,0.4,0.3,0.5,0.5c0.1,0.1,0.2,0.2,0.3,0.2c0.2,0.2,0.4,0.3,0.6,0.4c0.1,0,0.2,0.1,0.2,0.2l0,0
	c0,0,0,0,0,0l114.3,66c3.9,2.3,9,0.9,11.2-3c2.3-3.9,0.9-9-3-11.2L24.7,289.4l33-19l104.7,60.5v52.3c0,0,0,0.1,0,0.1
	c0,0,0,0.1,0,0.1l0.5,96.2h14.5l1.6-91.8l158-91.2c2.5-1.5,4.1-4.2,4.1-7.1L341.1,101.9C341.1,101.9,341.1,101.9,341.1,101.9z
	 M178.8,22.5L316.5,102l-33,19L178.8,60.5V22.5z M234,184.7c-4.5,0-8.2,3.7-8.2,8.2v24.4l-38.3-22l87.8-50.7v101.1l-33-19V193
	C242.3,188.4,238.6,184.7,234,184.7z M178.8,79.5l88.3,51l-33,19.1l-55.3-31.9V79.5z M178.8,136.6l38.8,22.4l-38.8,22.4V136.6z
	 M178.8,209.3l39.4,22.6l-39.4,22.8V209.3z M178.8,273.7l55.9-32.3l33.1,19l-89,51.4V273.7z M49.4,256.1l-33,19v-159l33,18.9V256.1z
	 M24.7,101.9l137.7-79.5v38.1l-61.6,35.6c-3.9,2.3-5.3,7.3-3,11.2s7.3,5.3,11.2,3l53.4-30.8v38.1l-55,31.7L24.7,101.9z M162.4,209.9
	v44.8l-38.8-22.4L162.4,209.9z M115.3,218.1v-45.2l39.3,22.5L115.3,218.1z M123.9,158.9l38.5-22.2V181L123.9,158.9z M65.9,144.5
	l33,19v64.1l-33,19.1V144.5z M74.1,260.9l33-19.1l55.3,31.9v38.1L74.1,260.9z M324.7,284.7l-145.9,84.2v-38.1l105.5-60.9l19.1,11
	c1.3,0.7,2.7,1.1,4.1,1.1c2.8,0,5.6-1.5,7.1-4.1c2.3-3.9,0.9-9-3-11.2l-19.9-11.4v-120l33-19V284.7z"/>
<g>
	<circle style="fill:#1ABC9C;stroke:#FFFFFF;stroke-width:5;stroke-miterlimit:10;" cx="252.1" cy="334" r="34.5"/>
	<g>
		<path style="fill:#FFFFFF;" d="M238.7,335.3c0-0.6,0.2-1.1,0.6-1.6c0.4-0.4,0.9-0.7,1.7-0.7h2.4v-5.6c0-1.5,0.2-3,0.7-4.4
			c0.5-1.4,1.2-2.6,2.1-3.7c1-1.1,2.1-1.9,3.6-2.5c1.4-0.6,3.1-0.9,5.1-0.9c1.3,0,2.5,0.2,3.6,0.5c1.1,0.3,2,0.8,2.8,1.4
			c0.8,0.6,1.6,1.3,2.2,2.1c0.6,0.8,1.2,1.7,1.6,2.6l-2.7,1.7c-0.6,0.3-1.2,0.5-1.8,0.4c-0.6,0-1.1-0.3-1.6-0.8
			c-0.3-0.3-0.6-0.7-0.9-0.9c-0.3-0.3-0.6-0.5-0.9-0.7c-0.3-0.2-0.7-0.3-1-0.4c-0.4-0.1-0.8-0.1-1.2-0.1c-1.5,0-2.7,0.5-3.4,1.5
			c-0.7,1-1.1,2.5-1.1,4.3v5.6h9.7v2.6c0,0.2,0,0.4-0.1,0.6c-0.1,0.2-0.2,0.4-0.4,0.6c-0.2,0.2-0.4,0.3-0.6,0.4
			c-0.2,0.1-0.5,0.1-0.8,0.1h-7.8v4.4c0,1-0.2,2-0.6,2.8c-0.4,0.8-0.9,1.6-1.6,2.3c0.7-0.1,1.3-0.2,2-0.3c0.7-0.1,1.3-0.1,2-0.1
			h13.5v2.8c0,0.3-0.1,0.7-0.2,1s-0.3,0.7-0.6,0.9c-0.3,0.3-0.6,0.5-0.9,0.7c-0.4,0.2-0.8,0.3-1.2,0.3h-23.5v-4.2
			c0.5-0.1,1.1-0.3,1.6-0.5c0.5-0.2,1-0.5,1.3-0.9s0.7-0.8,0.9-1.3s0.3-1.1,0.3-1.7v-6.1h-4.6V335.3z"/>
	</g>
</g>
<g>
	<circle style="fill:#1ABC9C;stroke:#FFFFFF;stroke-width:5;stroke-miterlimit:10;" cx="115.1" cy="159" r="34.5"/>
	<g>
		<path style="fill:#FFFFFF;" d="M101.7,160.3c0-0.6,0.2-1.1,0.6-1.6c0.4-0.4,0.9-0.7,1.7-0.7h2.4v-5.6c0-1.5,0.2-3,0.7-4.4
			c0.5-1.4,1.2-2.6,2.1-3.7c1-1.1,2.1-1.9,3.6-2.5c1.4-0.6,3.1-0.9,5.1-0.9c1.3,0,2.5,0.2,3.6,0.5c1.1,0.3,2,0.8,2.8,1.4
			c0.8,0.6,1.6,1.3,2.2,2.1c0.6,0.8,1.2,1.7,1.6,2.6l-2.7,1.7c-0.6,0.3-1.2,0.5-1.8,0.4c-0.6,0-1.1-0.3-1.6-0.8
			c-0.3-0.3-0.6-0.7-0.9-0.9c-0.3-0.3-0.6-0.5-0.9-0.7c-0.3-0.2-0.7-0.3-1-0.4c-0.4-0.1-0.8-0.1-1.2-0.1c-1.5,0-2.7,0.5-3.4,1.5
			c-0.7,1-1.1,2.5-1.1,4.3v5.6h9.7v2.6c0,0.2,0,0.4-0.1,0.6c-0.1,0.2-0.2,0.4-0.4,0.6c-0.2,0.2-0.4,0.3-0.6,0.4
			c-0.2,0.1-0.5,0.1-0.8,0.1h-7.8v4.4c0,1-0.2,2-0.6,2.8c-0.4,0.8-0.9,1.6-1.6,2.3c0.7-0.1,1.3-0.2,2-0.3c0.7-0.1,1.3-0.1,2-0.1
			h13.5v2.8c0,0.3-0.1,0.7-0.2,1s-0.3,0.7-0.6,0.9c-0.3,0.3-0.6,0.5-0.9,0.7c-0.4,0.2-0.8,0.3-1.2,0.3h-23.5v-4.2
			c0.5-0.1,1.1-0.3,1.6-0.5c0.5-0.2,1-0.5,1.3-0.9s0.7-0.8,0.9-1.3s0.3-1.1,0.3-1.7v-6.1h-4.6V160.3z"/>
	</g>
</g>
<g>
	<circle style="fill:#1ABC9C;stroke:#FFFFFF;stroke-width:5;stroke-miterlimit:10;" cx="279.1" cy="131" r="34.5"/>
	<g>
		<path style="fill:#FFFFFF;" d="M265.7,132.3c0-0.6,0.2-1.1,0.6-1.6c0.4-0.4,0.9-0.7,1.7-0.7h2.4v-5.6c0-1.5,0.2-3,0.7-4.4
			c0.5-1.4,1.2-2.6,2.1-3.7c1-1.1,2.1-1.9,3.6-2.5c1.4-0.6,3.1-0.9,5.1-0.9c1.3,0,2.5,0.2,3.6,0.5c1.1,0.3,2,0.8,2.8,1.4
			c0.8,0.6,1.6,1.3,2.2,2.1c0.6,0.8,1.2,1.7,1.6,2.6l-2.7,1.7c-0.6,0.3-1.2,0.5-1.8,0.4c-0.6,0-1.1-0.3-1.6-0.8
			c-0.3-0.3-0.6-0.7-0.9-0.9c-0.3-0.3-0.6-0.5-0.9-0.7c-0.3-0.2-0.7-0.3-1-0.4c-0.4-0.1-0.8-0.1-1.2-0.1c-1.5,0-2.7,0.5-3.4,1.5
			c-0.7,1-1.1,2.5-1.1,4.3v5.6h9.7v2.6c0,0.2,0,0.4-0.1,0.6c-0.1,0.2-0.2,0.4-0.4,0.6c-0.2,0.2-0.4,0.3-0.6,0.4
			c-0.2,0.1-0.5,0.1-0.8,0.1h-7.8v4.4c0,1-0.2,2-0.6,2.8c-0.4,0.8-0.9,1.6-1.6,2.3c0.7-0.1,1.3-0.2,2-0.3c0.7-0.1,1.3-0.1,2-0.1
			h13.5v2.8c0,0.3-0.1,0.7-0.2,1s-0.3,0.7-0.6,0.9c-0.3,0.3-0.6,0.5-0.9,0.7c-0.4,0.2-0.8,0.3-1.2,0.3h-23.5v-4.2
			c0.5-0.1,1.1-0.3,1.6-0.5c0.5-0.2,1-0.5,1.3-0.9s0.7-0.8,0.9-1.3s0.3-1.1,0.3-1.7v-6.1h-4.6V132.3z"/>
	</g>
</g>
</svg>
