<svg version="1.1" id="Layer_1" xmlns="http://www.w3.org/2000/svg" xmlns:xlink="http://www.w3.org/1999/xlink" x="0px" y="0px"
	 viewBox="0 0 480 480" style="enable-background:new 0 0 480 480;" xml:space="preserve">
<path d="M440,64h-64v16h64c13.3,0,24,10.7,24,24v200H16V104c0-13.3,10.7-24,24-24h64V64H40C17.9,64,0,81.9,0,104v240
	c0,22.1,17.9,40,40,40h134.9l-6,48H160c-8.8,0-16,7.2-16,16v16h-16v16h224v-16h-16v-16c0-8.8-7.2-16-16-16h-8.9l-6-48H440
	c22.1,0,40-17.9,40-40V104C480,81.9,462.1,64,440,64z M320,464H160v-16h160V464z M294.9,432H185.1l6-48h97.9L294.9,432z M440,368H40
	c-13.3,0-24-10.7-24-24v-24h448v24C464,357.3,453.3,368,440,368z"/>
<path d="M424,336h16v16h-16V336z"/>
<path d="M369.5,192c2.9,0,5.5-1.5,6.9-4s1.4-5.5,0-8c-9.6-16.6-26.9-27.1-46.1-27.9c-19.1-0.8-37.3,8.2-48.3,23.9h-84.2
	c-10.9-15.7-29.1-24.8-48.3-23.9c-19.1,0.8-36.5,11.4-46.1,27.9c-1.4,2.5-1.4,5.5,0,8s4.1,4,6.9,4h27.8l5.3,16l-5.3,16h-27.8
	c-2.9,0-5.5,1.5-6.9,4s-1.4,5.5,0,8c9.6,16.6,26.9,27.1,46.1,27.9c19.1,0.8,37.3-8.2,48.3-23.9h84.2c10.9,15.7,29.1,24.8,48.3,23.9
	c19.1-0.8,36.5-11.4,46.1-27.9c1.4-2.5,1.4-5.5,0-8s-4.1-4-6.9-4h-27.8l-5.3-16l5.3-16H369.5z M320.4,210.5l8,24
	c1.1,3.3,4.1,5.5,7.6,5.5h15.9c-9.1,6.9-20.8,9.5-32,7.2c-11.2-2.3-20.9-9.3-26.6-19.2c-1.4-2.5-4.1-4-6.9-4h-93
	c-2.9,0-5.5,1.5-6.9,4c-5.7,9.9-15.4,16.9-26.6,19.2c-11.2,2.3-22.8-0.3-32-7.2H144c3.4,0,6.5-2.2,7.6-5.5l8-24
	c0.6-1.6,0.6-3.4,0-5.1l-8-24c-1.1-3.3-4.1-5.5-7.6-5.5h-15.9c9.1-6.9,20.8-9.5,32-7.2c11.2,2.3,20.9,9.3,26.6,19.2
	c1.4,2.5,4.1,4,6.9,4h93c2.9,0,5.5-1.5,6.9-4c5.7-9.9,15.4-16.9,26.6-19.2c11.2-2.3,22.8,0.3,32,7.2H336c-3.4,0-6.5,2.2-7.6,5.5
	l-8,24C319.9,207.1,319.9,208.9,320.4,210.5z"/>
<rect id="clipPath" x="92" style="fill:none;" width="296.5" height="145"/>
<g id="cog">
	<path style="fill:none;" d="M240,96c-26.4,0-47.9,21.4-48,47.8c0.4,26.1,21.7,47.2,48,47.2c26.4,0,47.9-21.4,48-47.8
		C287.5,117.1,266.2,96,240,96z"/>
	<path style="fill:none;" d="M338.6,122.8c-3.1-0.4-5.7-2.7-6.5-5.7c-1.9-6.7-4.6-13.1-7.9-19.2c-1.5-2.8-1.3-6.1,0.6-8.6l17.8-23.7
		l-24.1-24.1l-23.7,17.8c-2.5,1.9-5.9,2.1-8.6,0.6c-6.1-3.3-12.5-6-19.2-7.9c-3-0.9-5.2-3.4-5.7-6.6L257.1,16h-34.1l-4.2,29.4
		c-0.4,3.1-2.7,5.7-5.7,6.6c-6.7,1.9-13.1,4.6-19.2,7.9c-2.8,1.5-6.1,1.3-8.6-0.6l-23.7-17.8l-24.1,24.1l17.8,23.7
		c1.9,2.5,2.1,5.9,0.6,8.6c-3.3,6.1-6,12.5-7.9,19.2c-0.9,3-3.4,5.2-6.5,5.7l-29.4,4.2v8.1v17v8l29.4,4.2c3.1,0.4,5.7,2.7,6.5,5.7
		c1.9,6.7,4.6,13.1,7.9,19.2c1.5,2.8,1.3,6.1-0.6,8.6l-17.8,23.7l24.1,24.1l23.7-17.8c2.5-1.9,5.9-2.1,8.6-0.6
		c6.1,3.3,12.5,6,19.2,7.9c3,0.9,5.2,3.4,5.7,6.6l4.2,29.4H257l4.2-29.4c0.4-3.1,2.7-5.7,5.7-6.6c6.7-1.9,13.1-4.6,19.2-7.9
		c2.8-1.5,6.1-1.3,8.6,0.6l23.7,17.8l24.1-24.1l-17.8-23.7c-1.9-2.5-2.1-5.9-0.6-8.6c3.3-6.1,6-12.5,7.9-19.2c0.9-3,3.4-5.2,6.5-5.7
		l29.4-4.2V152v-17v-8L338.6,122.8z M142.9,153h-16l0-16l16,0V153z M232,32h16v16h-16V32z M155.2,70.5l11.3-11.3l11.3,11.3
		l-11.3,11.3L155.2,70.5z M166.4,227.8l-11.3-11.3l11.3-11.3l11.3,11.3L166.4,227.8z M248,255h-16v-16h16V255z M240,207
		c-35,0-63.4-28.1-64-63h0c0-0.1,0-0.1,0-0.2c0-0.3,0-0.5,0-0.8h0c0.5-34.9,29-63,64-63s63.4,28.1,64,63h0c0,0.1,0,0.1,0,0.2
		c0,0.3,0,0.5,0,0.8h0C303.4,178.9,275,207,240,207z M324.8,216.5l-11.3,11.3l-11.3-11.3l11.3-11.3L324.8,216.5z M313.5,81.8
		l-11.3-11.3l11.3-11.3l11.3,11.3L313.5,81.8z M353.9,153h-16l0-16l16,0V153z"/>
	<rect x="232" y="239" width="16" height="16"/>
	<rect x="126.9" y="137" width="16" height="16"/>
	<rect x="337.9" y="137" width="16" height="16"/>
	<rect x="305.5" y="208.5" transform="matrix(0.7071 -0.7071 0.7071 0.7071 -61.2878 285.1143)" width="16" height="16"/>
	<rect x="158.4" y="208.5" transform="matrix(0.707 -0.7072 0.7072 0.707 -104.3685 181.1621)" width="16" height="16"/>
	<path d="M377.1,112.1l-31.3-4.5c-1.5-4.4-3.2-8.6-5.3-12.8l18.9-25.2c2.4-3.2,2.1-7.6-0.7-10.5l-34-33.9c-2.8-2.8-7.3-3.1-10.4-0.7
		l-25.2,18.9c-4.2-2-8.4-3.8-12.8-5.3l-4.4-31.3C271.4,2.9,268,0,264,0h-48c-4,0-7.4,2.9-7.9,6.9l-4.5,31.3
		c-4.4,1.5-8.6,3.2-12.8,5.3l-25.2-18.9c-3.2-2.4-7.6-2.1-10.4,0.7l-34,33.9c-2.8,2.8-3.1,7.3-0.7,10.5l18.9,25.2
		c-2,4.2-3.8,8.4-5.3,12.8l-31.3,4.5c-3.9,0.6-6.9,3.9-6.9,7.9v15v17v15c0,4,2.9,7.4,6.9,7.9l31.3,4.5c1.5,4.4,3.2,8.6,5.3,12.8
		l-18.9,25.2c-2.4,3.2-2.1,7.6,0.7,10.5l34,33.9c2.8,2.8,7.3,3.1,10.4,0.7l25.2-18.9c4.2,2,8.4,3.8,12.8,5.3l4.4,31.3
		c0.6,3.9,3.9,6.9,7.9,6.9h48c4,0,7.4-2.9,7.9-6.9l4.5-31.3c4.4-1.5,8.6-3.2,12.8-5.3l25.2,18.9c3.2,2.4,7.6,2.1,10.4-0.7l34-33.9
		c2.8-2.8,3.1-7.3,0.7-10.5l-18.9-25.2c2-4.2,3.8-8.4,5.3-12.8l31.3-4.5c3.9-0.6,6.9-3.9,6.9-7.9v-15v-17v-15
		C384,116,381.1,112.6,377.1,112.1z M368,152v8.1l-29.4,4.2c-3.1,0.4-5.7,2.7-6.5,5.7c-1.9,6.7-4.6,13.1-7.9,19.2
		c-1.5,2.8-1.3,6.1,0.6,8.6l17.8,23.7l-24.1,24.1l-23.7-17.8c-2.5-1.9-5.9-2.1-8.6-0.6c-6.1,3.3-12.5,6-19.2,7.9
		c-3,0.9-5.2,3.4-5.7,6.6L257,271h-34.1l-4.2-29.4c-0.4-3.1-2.7-5.7-5.7-6.6c-6.7-1.9-13.1-4.6-19.2-7.9c-2.7-1.5-6.1-1.3-8.6,0.6
		l-23.7,17.8l-24.1-24.1l17.8-23.7c1.9-2.5,2.1-5.9,0.6-8.6c-3.3-6.1-6-12.5-7.9-19.2c-0.9-3-3.4-5.2-6.5-5.7L112,160v-8v-17v-8.1
		l29.4-4.2c3.1-0.4,5.7-2.7,6.5-5.7c1.9-6.7,4.6-13.1,7.9-19.2c1.5-2.8,1.3-6.1-0.6-8.6l-17.8-23.7l24.1-24.1l23.7,17.8
		c2.5,1.9,5.9,2.1,8.6,0.6c6.1-3.3,12.5-6,19.2-7.9c3-0.9,5.2-3.4,5.7-6.6l4.2-29.4h34.1l4.2,29.4c0.4,3.1,2.7,5.7,5.7,6.6
		c6.7,1.9,13.1,4.6,19.2,7.9c2.7,1.5,6.1,1.3,8.6-0.6l23.7-17.8l24.1,24.1l-17.8,23.7c-1.9,2.5-2.1,5.9-0.6,8.6
		c3.3,6.1,6,12.5,7.9,19.2c0.9,3,3.4,5.2,6.5,5.7L368,127v8V152z"/>
	<rect x="232" y="32" width="16" height="16"/>
	<rect x="158.5" y="62.5" transform="matrix(0.7071 -0.7071 0.7071 0.7071 -1.0677 138.3462)" width="16" height="16"/>
	<rect x="305.5" y="62.5" transform="matrix(0.7071 -0.7071 0.7071 0.7071 42.0069 242.3452)" width="16" height="16"/>
	<path d="M304,144c0-0.3,0-0.5,0-0.8c0-0.1,0-0.1,0-0.2h0c-0.5-34.9-29-63-64-63s-63.4,28.1-64,63h0c0,0.3,0,0.5,0,0.8
		c0,0.1,0,0.1,0,0.2h0c0.5,34.9,29,63,64,63S303.4,178.9,304,144L304,144z M240,191c-26.2,0-47.5-21.1-48-47.2
		c0.1-26.4,21.6-47.8,48-47.8c26.2,0,47.5,21.1,48,47.2C287.9,169.6,266.4,191,240,191z"/>
</g>
</svg>
