<svg version="1.1" id="backend" xmlns="http://www.w3.org/2000/svg" xmlns:xlink="http://www.w3.org/1999/xlink" x="0px" y="0px"
	 viewBox="0 0 512 512" style="enable-background:new 0 0 512 512;" xml:space="preserve">
<g>
	<g>
		<path d="M59.4,75.4C46,75.4,35,86.3,35,99.7S46,124,59.4,124s24.3-10.9,24.3-24.3S72.8,75.4,59.4,75.4z M59.4,108.8
			c-5,0-9.1-4.1-9.1-9.1s4.1-9.1,9.1-9.1s9.1,4.1,9.1,9.1C68.5,104.7,64.4,108.8,59.4,108.8z"/>
	</g>
</g>
<g>
	<g>
		<path d="M115.7,75.4c-13.4,0-24.3,10.9-24.3,24.3s10.9,24.3,24.3,24.3S140,113.1,140,99.7S129.1,75.4,115.7,75.4z M115.7,108.8
			c-5,0-9.1-4.1-9.1-9.1s4.1-9.1,9.1-9.1s9.1,4.1,9.1,9.1C124.9,104.7,120.8,108.8,115.7,108.8z"/>
	</g>
</g>
<g>
	<g>
		<path d="M172.1,75.4c-13.4,0-24.3,10.9-24.3,24.3s10.9,24.3,24.3,24.3c13.4,0,24.3-10.9,24.3-24.3S185.5,75.4,172.1,75.4z
			 M172.1,108.8c-5,0-9.1-4.1-9.1-9.1s4.1-9.1,9.1-9.1s9.1,4.1,9.1,9.1C181.2,104.7,177.1,108.8,172.1,108.8z"/>
	</g>
</g>
<g>
	<g>
		<path d="M248.4,427.8H40.1c-13.7,0-24.9-11.2-24.9-24.9v-253h54.2c4.2,0,7.6-3.4,7.6-7.6s-3.4-7.6-7.6-7.6H15.2V91.3
			c0-13.7,11.2-24.9,24.9-24.9h208.3V51.2H40.1C18,51.2,0,69.1,0,91.3v50.9c0,0.1,0,0.1,0,0.2c0,0.1,0,0.1,0,0.2v260.5
			c0,22,18,39.9,40.1,39.9h208.3V427.8z"/>
		<path d="M89.2,142.3c0,4.2,3.4,7.6,7.6,7.6h151.6v-15.2H96.8C92.6,134.7,89.2,138.1,89.2,142.3z"/>
	</g>
</g>
<g id="backendClipPath">
	<defs>
		<rect id="backendClipPathRect" x="512.7" y="50.2" width="238.3" height="391.9"/>
	</defs>
	<clipPath id="backendClipPathRect_1_">
		<use xlink:href="#backendClipPathRect" style="overflow:visible;"/>
	</clipPath>
	<g style="clip-path:url(#backendClipPathRect_1_);">
		<g>
			<path d="M436.1,114.9h60.7V99.7h-53.1V66.4h-15.2v40.9C428.5,111.5,431.9,114.9,436.1,114.9z"/>
			<path d="M281.4,109.8c-4.2,0-7.6,3.4-7.6,7.6c0,4.2,3.4,7.6,7.6,7.6h121.2c4.2,0,7.6-3.4,7.6-7.6v-51H395v43.4H281.4z"/>
			<path d="M485.1,315.9c0-13.4-10.9-24.3-24.3-24.3c-13.4,0-24.3,10.9-24.3,24.3c0,10.8,7,19.9,16.7,23.1v88.9h15.2v-30.2V339
				C478.1,335.8,485.1,326.6,485.1,315.9z M460.8,325c-5,0-9.1-4.1-9.1-9.1s4.1-9.1,9.1-9.1s9.1,4.1,9.1,9.1
				C470,320.9,465.9,325,460.8,325z"/>
			<g>
				<g>
					<path d="M373.2,79.4h-91.8c-4.2,0-7.6,3.4-7.6,7.6s3.4,7.6,7.6,7.6h91.8c4.2,0,7.6-3.4,7.6-7.6
						C380.8,82.8,377.4,79.4,373.2,79.4z"/>
				</g>
			</g>
			<g>
				<g>
					<path d="M417.3,358.7c-10.8,0-19.9,7-23.1,16.7h-20.5v-14.7c0-4.2-3.4-7.6-7.6-7.6s-7.6,3.4-7.6,7.6v14.7h-14.2v-14.7
						c0-4.2-3.4-7.6-7.6-7.6s-7.6,3.4-7.6,7.6v14.7h-13.2v-14.7c0-4.2-3.4-7.6-7.6-7.6s-7.6,3.4-7.6,7.6v14.7h-19.4
						c-4.2,0-7.6,3.4-7.6,7.6s3.4,7.6,7.6,7.6h112.8c3.2,9.7,12.4,16.7,23.1,16.7c13.4,0,24.3-10.9,24.3-24.3
						C441.6,369.6,430.7,358.7,417.3,358.7z M417.3,392.2c-5,0-9.1-4.1-9.1-9.1s4.1-9.1,9.1-9.1s9.1,4.1,9.1,9.1
						S422.3,392.2,417.3,392.2z"/>
				</g>
			</g>
			<g>
				<path d="M364.6,164.7c1.4-1.4,2.2-3.4,2.2-5.4v-9.4h-15.2v6.4l-28.2,28.2c-3.4-1.7-7.1-2.6-11-2.6c-6.5,0-12.6,2.5-17.2,7.1
					c-9.5,9.5-9.5,24.9,0,34.4c4.7,4.7,11,7.1,17.2,7.1s12.5-2.4,17.2-7.1c7.6-7.6,9.1-19,4.5-28.2L364.6,164.7z M318.8,212.7
					c-3.6,3.6-9.4,3.6-12.9,0c-3.6-3.6-3.6-9.4,0-12.9c1.7-1.7,4-2.7,6.5-2.7c2.4,0,4.7,0.9,6.5,2.7
					C322.4,203.4,322.4,209.2,318.8,212.7z"/>
				<path d="M496.8,149.9v14.7h-53.6c-4.2,0-7.6,3.4-7.6,7.6s3.4,7.6,7.6,7.6h53.6v14.7h-33.4c-4.2,0-7.6,3.4-7.6,7.6
					s3.4,7.6,7.6,7.6h33.4V149.9L496.8,149.9z"/>
				<path d="M393,238.6v-88.7h-15.2v88.7c-9.7,3.2-16.7,12.4-16.7,23.1c0,13.4,10.9,24.3,24.3,24.3c13.4,0,24.3-10.9,24.3-24.3
					C409.7,250.9,402.7,241.8,393,238.6z M385.4,271c-5,0-9.1-4.1-9.1-9.1s4.1-9.1,9.1-9.1s9.1,4.1,9.1,9.1S390.4,271,385.4,271z"/>
				<path d="M460.8,230.1c-3.9,0-7.6,0.9-11,2.6l-28.2-28.2v-54.6h-15.2v57.6c0,2,0.8,4,2.2,5.4l30.5,30.5
					c-4.6,9.1-3.1,20.6,4.5,28.2c4.7,4.7,11,7.1,17.2,7.1s12.5-2.4,17.2-7.1c9.5-9.5,9.5-24.9,0-34.4
					C473.4,232.6,467.3,230.1,460.8,230.1z M467.4,260.9c-3.6,3.6-9.4,3.6-12.9,0c-3.7-3.6-3.7-9.3-0.1-12.9c1.7-1.7,4-2.7,6.5-2.7
					c2.4,0,4.7,0.9,6.5,2.7C471,251.6,471,257.4,467.4,260.9z"/>
			</g>
			<g>
				<g>
					<path d="M385.4,298.1c-10.8,0-19.9,7-23.1,16.7H320V285c9.7-3.2,16.7-12.4,16.7-23.1c0-13.4-10.9-24.3-24.3-24.3
						s-24.3,10.9-24.3,24.3c0,10.8,7,19.9,16.7,23.1v29.9h-23.4l0,0c-4.2,0-7.6,3.4-7.6,7.6s3.4,7.6,7.6,7.6h80.9
						c3.2,9.7,12.4,16.7,23.1,16.7c13.4,0,24.3-10.9,24.3-24.3C409.7,309,398.8,298.1,385.4,298.1z M312.4,271c-5,0-9.1-4.1-9.1-9.1
						s4.1-9.1,9.1-9.1s9.1,4.1,9.1,9.1S317.4,271,312.4,271z M385.4,331.6c-5,0-9.1-4.1-9.1-9.1s4.1-9.1,9.1-9.1s9.1,4.1,9.1,9.1
						S390.4,331.6,385.4,331.6z"/>
				</g>
			</g>
		</g>
		<g>
			<path d="M436.1,114.9h60.7V99.7h-53.1V66.4h-15.2v40.9C428.5,111.5,431.9,114.9,436.1,114.9z"/>
			<path d="M281.4,109.8c-4.2,0-7.6,3.4-7.6,7.6c0,4.2,3.4,7.6,7.6,7.6h121.2c4.2,0,7.6-3.4,7.6-7.6v-51H395v43.4H281.4z"/>
			<path d="M485.1,315.9c0-13.4-10.9-24.3-24.3-24.3c-13.4,0-24.3,10.9-24.3,24.3c0,10.8,7,19.9,16.7,23.1v88.9h15.2v-30.2V339
				C478.1,335.8,485.1,326.6,485.1,315.9z M460.8,325c-5,0-9.1-4.1-9.1-9.1s4.1-9.1,9.1-9.1s9.1,4.1,9.1,9.1
				C470,320.9,465.9,325,460.8,325z"/>
			<g>
				<g>
					<path d="M373.2,79.4h-91.8c-4.2,0-7.6,3.4-7.6,7.6s3.4,7.6,7.6,7.6h91.8c4.2,0,7.6-3.4,7.6-7.6
						C380.8,82.8,377.4,79.4,373.2,79.4z"/>
				</g>
			</g>
			<g>
				<g>
					<path d="M417.3,358.7c-10.8,0-19.9,7-23.1,16.7h-20.5v-14.7c0-4.2-3.4-7.6-7.6-7.6s-7.6,3.4-7.6,7.6v14.7h-14.2v-14.7
						c0-4.2-3.4-7.6-7.6-7.6s-7.6,3.4-7.6,7.6v14.7h-13.2v-14.7c0-4.2-3.4-7.6-7.6-7.6s-7.6,3.4-7.6,7.6v14.7h-19.4
						c-4.2,0-7.6,3.4-7.6,7.6s3.4,7.6,7.6,7.6h112.8c3.2,9.7,12.4,16.7,23.1,16.7c13.4,0,24.3-10.9,24.3-24.3
						C441.6,369.6,430.7,358.7,417.3,358.7z M417.3,392.2c-5,0-9.1-4.1-9.1-9.1s4.1-9.1,9.1-9.1s9.1,4.1,9.1,9.1
						S422.3,392.2,417.3,392.2z"/>
				</g>
			</g>
			<g>
				<path d="M364.6,164.7c1.4-1.4,2.2-3.4,2.2-5.4v-9.4h-15.2v6.4l-28.2,28.2c-3.4-1.7-7.1-2.6-11-2.6c-6.5,0-12.6,2.5-17.2,7.1
					c-9.5,9.5-9.5,24.9,0,34.4c4.7,4.7,11,7.1,17.2,7.1s12.5-2.4,17.2-7.1c7.6-7.6,9.1-19,4.5-28.2L364.6,164.7z M318.8,212.7
					c-3.6,3.6-9.4,3.6-12.9,0c-3.6-3.6-3.6-9.4,0-12.9c1.7-1.7,4-2.7,6.5-2.7c2.4,0,4.7,0.9,6.5,2.7
					C322.4,203.4,322.4,209.2,318.8,212.7z"/>
				<path d="M496.8,149.9v14.7h-53.6c-4.2,0-7.6,3.4-7.6,7.6s3.4,7.6,7.6,7.6h53.6v14.7h-33.4c-4.2,0-7.6,3.4-7.6,7.6
					s3.4,7.6,7.6,7.6h33.4V149.9L496.8,149.9z"/>
				<path d="M393,238.6v-88.7h-15.2v88.7c-9.7,3.2-16.7,12.4-16.7,23.1c0,13.4,10.9,24.3,24.3,24.3c13.4,0,24.3-10.9,24.3-24.3
					C409.7,250.9,402.7,241.8,393,238.6z M385.4,271c-5,0-9.1-4.1-9.1-9.1s4.1-9.1,9.1-9.1s9.1,4.1,9.1,9.1S390.4,271,385.4,271z"/>
				<path d="M460.8,230.1c-3.9,0-7.6,0.9-11,2.6l-28.2-28.2v-54.6h-15.2v57.6c0,2,0.8,4,2.2,5.4l30.5,30.5
					c-4.6,9.1-3.1,20.6,4.5,28.2c4.7,4.7,11,7.1,17.2,7.1s12.5-2.4,17.2-7.1c9.5-9.5,9.5-24.9,0-34.4
					C473.4,232.6,467.3,230.1,460.8,230.1z M467.4,260.9c-3.6,3.6-9.4,3.6-12.9,0c-3.7-3.6-3.7-9.3-0.1-12.9c1.7-1.7,4-2.7,6.5-2.7
					c2.4,0,4.7,0.9,6.5,2.7C471,251.6,471,257.4,467.4,260.9z"/>
			</g>
			<g>
				<g>
					<path d="M385.4,298.1c-10.8,0-19.9,7-23.1,16.7H320V285c9.7-3.2,16.7-12.4,16.7-23.1c0-13.4-10.9-24.3-24.3-24.3
						s-24.3,10.9-24.3,24.3c0,10.8,7,19.9,16.7,23.1v29.9h-23.4l0,0c-4.2,0-7.6,3.4-7.6,7.6s3.4,7.6,7.6,7.6h80.9
						c3.2,9.7,12.4,16.7,23.1,16.7c13.4,0,24.3-10.9,24.3-24.3C409.7,309,398.8,298.1,385.4,298.1z M312.4,271c-5,0-9.1-4.1-9.1-9.1
						s4.1-9.1,9.1-9.1s9.1,4.1,9.1,9.1S317.4,271,312.4,271z M385.4,331.6c-5,0-9.1-4.1-9.1-9.1s4.1-9.1,9.1-9.1s9.1,4.1,9.1,9.1
						S390.4,331.6,385.4,331.6z"/>
				</g>
			</g>
		</g>
	</g>
</g>
<path d="M471.9,51.2H281.4h0h-33v15.2h33h0H395h15.2h18.3h15.2h24.7h3.5c13.7,0,24.9,11.2,24.9,24.9v6.4v2v15.2v19.8H284.2h-2.8h-33
	v15.2h33h2.8h67.4v0h14.6h0.6h11H393h13.4h0.4h14.8v0h75.2v0h0v247.8h0v5.3c0,13.7-11.2,24.9-24.9,24.9h-3.5h-15.2H282.8v0h-34.3
	v15.2h33h1.3h189.2c22.1,0,40.1-18,40.1-40.1V107.6c0-0.1,0-16.3,0-16.3C512,69.2,494,51.2,471.9,51.2z"/>
<g id="backendBar">
	<line x1="560.4" y1="444.1" x2="560.4" y2="444.1"/>
	<path d="M560.4,66.4L560.4,66.4C560.4,66.4,560.4,66.4,560.4,66.4L560.4,66.4z"/>
	<path style="fill:#FFFFFF;" d="M560.4,443.1c-4.2,0-7.6-3.4-7.6-7.6s3.4-7.6,7.6-7.6v0h-17.8v15.2H560.4z"/>
	<path style="fill:#FFFFFF;" d="M560.4,149.9c-4.2,0-7.6-3.4-7.6-7.6s3.4-7.6,7.6-7.6v0h-17.8v15.2H560.4z"/>
	<path style="fill:#FFFFFF;" d="M560.4,51.2v-1h0h-17.8v16.2h17.7c-4.2,0-7.5-3.4-7.5-7.6C552.8,54.6,556.2,51.2,560.4,51.2z"/>
	<path d="M542.6,501.3L542.6,501.3c0,4.2-3.4,7.6-7.6,7.6s-7.6-3.4-7.6-7.6V443v-15.2V149.9v-15.2V66.4V51.2V10.7
		c0-4.2,3.4-7.6,7.6-7.6s7.6,3.4,7.6,7.6v55.7h0v68.3h0v15.2h0v278h0v15.2h0v1L542.6,501.3z"/>
</g>
</svg>
