<svg version="1.1" id="Capa_1" xmlns="http://www.w3.org/2000/svg" xmlns:xlink="http://www.w3.org/1999/xlink" x="0px" y="0px"
	 viewBox="0 0 512 512" style="enable-background:new 0 0 512 512;" xml:space="preserve">
<g>
	<g>
		<path d="M59.4,75.4C46,75.4,35,86.3,35,99.7C35,113.1,46,124,59.4,124s24.3-10.9,24.3-24.3C83.7,86.3,72.8,75.4,59.4,75.4z
			 M59.4,108.8c-5,0-9.1-4.1-9.1-9.1s4.1-9.1,9.1-9.1s9.1,4.1,9.1,9.1C68.5,104.7,64.4,108.8,59.4,108.8z"/>
	</g>
</g>
<g>
	<g>
		<path d="M115.7,75.4c-13.4,0-24.3,10.9-24.3,24.3c0,13.4,10.9,24.3,24.3,24.3c13.4,0,24.3-10.9,24.3-24.3S129.1,75.4,115.7,75.4z
			 M115.7,108.8c-5,0-9.1-4.1-9.1-9.1s4.1-9.1,9.1-9.1s9.1,4.1,9.1,9.1C124.9,104.7,120.8,108.8,115.7,108.8z"/>
	</g>
</g>
<g>
	<g>
		<path d="M172.1,75.4c-13.4,0-24.3,10.9-24.3,24.3c0,13.4,10.9,24.3,24.3,24.3c13.4,0,24.3-10.9,24.3-24.3S185.5,75.4,172.1,75.4z
			 M172.1,108.8c-5,0-9.1-4.1-9.1-9.1s4.1-9.1,9.1-9.1s9.1,4.1,9.1,9.1C181.2,104.7,177.1,108.8,172.1,108.8z"/>
	</g>
</g>
<g>
	<g>
		<path d="M256,3.1c-4.2,0-7.6,3.4-7.6,7.6v40.5H40.1C18,51.2,0,69.1,0,91.3v50.9c0,0.1,0,0.1,0,0.2s0,0.1,0,0.2v260.5
			C0,425.1,18,443,40.1,443h208.3v58.3c0,4.2,3.4,7.6,7.6,7.6c4.2,0,7.6-3.4,7.6-7.6V10.7C263.6,6.5,260.2,3.1,256,3.1z
			 M248.4,134.7H96.8c-4.2,0-7.6,3.4-7.6,7.6c0,4.2,3.4,7.6,7.6,7.6h151.6v277.9H40.1v0c-13.7,0-24.9-11.2-24.9-24.9V149.9h54.2
			c4.2,0,7.6-3.4,7.6-7.6c0-4.2-3.4-7.6-7.6-7.6H15.2V91.3c0-13.7,11.2-24.9,24.9-24.9h208.3L248.4,134.7L248.4,134.7z"/>
	</g>
</g>
<g>
	<g>
		<path d="M512,91.3c0-22.1-18-40.1-40.1-40.1H281.4c-4.2,0-7.6,3.4-7.6,7.6c0,4.2,3.4,7.6,7.6,7.6H395v43.4H281.4
			c-4.2,0-7.6,3.4-7.6,7.6c0,4.2,3.4,7.6,7.6,7.6h121.2c4.2,0,7.6-3.4,7.6-7.6v-51h18.3v40.9c0,4.2,3.4,7.6,7.6,7.6h60.7v19.8H281.4
			c-4.2,0-7.6,3.4-7.6,7.6c0,4.2,3.4,7.6,7.6,7.6h70.2v6.4l-28.2,28.2c-3.4-1.7-7.1-2.6-11-2.6c-6.5,0-12.6,2.5-17.2,7.1
			c-9.5,9.5-9.5,24.9,0,34.4c4.7,4.7,11,7.1,17.2,7.1c6.2,0,12.5-2.4,17.2-7.1c7.6-7.6,9.1-19,4.5-28.2l30.5-30.5
			c1.4-1.4,2.2-3.4,2.2-5.4v-9.6h11v88.9c-9.7,3.2-16.7,12.4-16.7,23.1c0,13.4,10.9,24.3,24.3,24.3c13.4,0,24.3-10.9,24.3-24.3
			c0-10.8-7-19.9-16.7-23.1v-88.9h13.4v57.8c0,2,0.8,4,2.2,5.4l30.5,30.5c-4.6,9.1-3.1,20.6,4.5,28.2c4.7,4.7,11,7.1,17.2,7.1
			s12.5-2.4,17.2-7.1c9.5-9.5,9.5-24.9,0-34.4c-4.6-4.6-10.7-7.1-17.2-7.1c-3.9,0-7.6,0.9-11,2.6l-28.2-28.2v-54.6h75.2v14.7h-53.6
			c-4.2,0-7.6,3.4-7.6,7.6c0,4.2,3.4,7.6,7.6,7.6h53.6v14.7h-33.4c-4.2,0-7.6,3.4-7.6,7.6c0,4.2,3.4,7.6,7.6,7.6h33.4v193.3
			c0,13.7-11.2,24.9-24.9,24.9h-3.5v-88.9c9.7-3.2,16.7-12.4,16.7-23.1c0-13.4-10.9-24.3-24.3-24.3c-13.4,0-24.3,10.9-24.3,24.3
			c0,10.8,7,19.9,16.7,23.1v88.9H281.4c-4.2,0-7.6,3.4-7.6,7.6c0,4.2,3.4,7.6,7.6,7.6h190.5c22.1,0,40.1-18,40.1-40.1V107.6l0,0
			C512,107.5,512,91.3,512,91.3z M318.8,212.7c-3.6,3.6-9.4,3.6-12.9,0c-3.6-3.6-3.6-9.4,0-12.9c1.7-1.7,4-2.7,6.5-2.7
			c2.4,0,4.7,0.9,6.5,2.7C322.4,203.4,322.4,209.2,318.8,212.7z M394.5,261.9c0,5-4.1,9.1-9.1,9.1s-9.1-4.1-9.1-9.1s4.1-9.1,9.1-9.1
			S394.5,256.9,394.5,261.9z M454.4,248c1.7-1.7,4-2.7,6.5-2.7c2.4,0,4.7,0.9,6.5,2.7c3.6,3.6,3.6,9.4,0,12.9
			c-3.6,3.6-9.4,3.6-12.9,0C450.8,257.3,450.8,251.6,454.4,248z M460.8,325c-5,0-9.1-4.1-9.1-9.1c0-5,4.1-9.1,9.1-9.1
			s9.1,4.1,9.1,9.1C470,320.9,465.9,325,460.8,325z M496.8,99.7h-53.1V66.4h28.2c13.7,0,24.9,11.2,24.9,24.9V99.7z"/>
	</g>
</g>
<g>
	<g>
		<path d="M417.3,358.7c-10.8,0-19.9,7-23.1,16.7h-20.5v-14.7c0-4.2-3.4-7.6-7.6-7.6c-4.2,0-7.6,3.4-7.6,7.6v14.7h-14.2v-14.7
			c0-4.2-3.4-7.6-7.6-7.6s-7.6,3.4-7.6,7.6v14.7h-13.2v-14.7c0-4.2-3.4-7.6-7.6-7.6s-7.6,3.4-7.6,7.6v14.7h-19.4
			c-4.2,0-7.6,3.4-7.6,7.6c0,4.2,3.4,7.6,7.6,7.6h112.8c3.2,9.7,12.4,16.7,23.1,16.7c13.4,0,24.3-10.9,24.3-24.3
			C441.6,369.6,430.7,358.7,417.3,358.7z M417.3,392.2c-5,0-9.1-4.1-9.1-9.1s4.1-9.1,9.1-9.1s9.1,4.1,9.1,9.1
			C426.4,388.1,422.3,392.2,417.3,392.2z"/>
	</g>
</g>
<g>
	<g>
		<path d="M385.4,298.1c-10.8,0-19.9,7-23.1,16.7H320V285c9.7-3.2,16.7-12.4,16.7-23.1c0-13.4-10.9-24.3-24.3-24.3
			c-13.4,0-24.3,10.9-24.3,24.3c0,10.8,7,19.9,16.7,23.1v29.9h-23.4v0c-4.2,0-7.6,3.4-7.6,7.6s3.4,7.6,7.6,7.6h80.9
			c3.2,9.7,12.4,16.7,23.1,16.7c13.4,0,24.3-10.9,24.3-24.3C409.7,309,398.8,298.1,385.4,298.1z M312.4,271c-5,0-9.1-4.1-9.1-9.1
			c0-5,4.1-9.1,9.1-9.1s9.1,4.1,9.1,9.1C321.5,266.9,317.4,271,312.4,271z M385.4,331.6c-5,0-9.1-4.1-9.1-9.1s4.1-9.1,9.1-9.1
			s9.1,4.1,9.1,9.1S390.4,331.6,385.4,331.6z"/>
	</g>
</g>
<g>
	<g>
		<path d="M373.2,79.4h-91.8c-4.2,0-7.6,3.4-7.6,7.6c0,4.2,3.4,7.6,7.6,7.6h91.8c4.2,0,7.6-3.4,7.6-7.6
			C380.8,82.8,377.4,79.4,373.2,79.4z"/>
	</g>
</g>
</svg>
