<?xml version="1.0" standalone="no"?>
<!DOCTYPE svg PUBLIC "-//W3C//DTD SVG 20010904//EN"
 "http://www.w3.org/TR/2001/REC-SVG-20010904/DTD/svg10.dtd">
<svg version="1.0" xmlns="http://www.w3.org/2000/svg"
 width="260.000000pt" height="260.000000pt" viewBox="0 0 260.000000 260.000000"
 preserveAspectRatio="xMidYMid meet">
<metadata>
Created by potrace 1.11, written by Peter Selinger 2001-2013
</metadata>
<g transform="translate(0.000000,260.000000) scale(0.100000,-0.100000)"
fill="#000000" stroke="none">
<path d="M0 1300 l0 -1300 1300 0 1300 0 0 1300 0 1300 -1300 0 -1300 0 0
-1300z m1890 856 c167 -39 293 -125 347 -235 26 -51 28 -66 28 -171 0 -105 -2
-120 -28 -175 -37 -79 -110 -148 -189 -176 l-59 -22 72 -19 c212 -53 349 -230
349 -448 -1 -257 -181 -426 -508 -475 -126 -19 -1006 -22 -1000 -4 2 7 21 14
42 16 70 7 123 48 145 112 15 46 16 1419 0 1474 l-10 39 -127 -4 c-118 -3
-131 -5 -180 -33 -30 -16 -65 -43 -79 -60 -96 -112 -114 -333 -41 -484 56
-117 147 -182 283 -204 41 -6 75 -17 75 -23 0 -14 -101 -63 -165 -80 -69 -19
-209 -18 -276 2 -220 65 -369 263 -369 488 0 218 116 387 317 458 124 44 177
47 753 44 479 -2 554 -5 620 -20z"/>
<path d="M1488 2064 c-5 -4 -8 -345 -8 -759 0 -571 3 -754 12 -763 24 -24 208
-6 284 27 170 75 245 311 172 539 -44 137 -199 242 -358 242 -47 0 -35 18 18
25 108 16 184 71 228 167 26 57 29 73 29 173 0 143 -18 199 -89 271 -33 33
-65 56 -91 64 -50 15 -187 25 -197 14z"/>
</g>
</svg>
